<svg width="42" height="42" viewBox="0 0 42 42" fill="none" xmlns="http://www.w3.org/2000/svg">
<circle cx="21" cy="21" r="20.5" fill="white" stroke="#E6E6E6"/>
<path d="M26 15H15C14.7348 15 14.4804 15.1054 14.2929 15.2929C14.1054 15.4804 14 15.7348 14 16V21C14 21.2652 14.1054 21.5196 14.2929 21.7071C14.4804 21.8946 14.7348 22 15 22H26C26.2652 22 26.5196 21.8946 26.7071 21.7071C26.8946 21.5196 27 21.2652 27 21V16C27 15.7348 26.8946 15.4804 26.7071 15.2929C26.5196 15.1054 26.2652 15 26 15Z" stroke="#E97400" stroke-linecap="round" stroke-linejoin="round"/>
<path d="M24.5 22V20C24.5 19.7348 24.3946 19.4804 24.2071 19.2929C24.0196 19.1054 23.7652 19 23.5 19H17.5C17.2348 19 16.9804 19.1054 16.7929 19.2929C16.6054 19.4804 16.5 19.7348 16.5 20V22M16 27H16.1C16.4713 27 16.8274 26.8525 17.0899 26.5899C17.3525 26.3274 17.5 25.9713 17.5 25.6V24.5M25 27H24.9C24.5287 27 24.1726 26.8525 23.9101 26.5899C23.6475 26.3274 23.5 25.9713 23.5 25.6V24.5M20.5 28V24.5" stroke="#E97400" stroke-linecap="round" stroke-linejoin="round"/>
</svg>
