<svg width="25" height="23" viewBox="0 0 25 23" fill="none" xmlns="http://www.w3.org/2000/svg">
<path d="M23.3529 8.1646C23.3568 9.91482 22.6942 11.5985 21.5043 12.8622C18.7761 15.741 16.1295 18.7427 13.3007 21.5157C12.6513 22.1413 11.622 22.1185 11.0017 21.4645L2.84833 12.8633C0.38389 10.2632 0.38389 6.06605 2.84833 3.46703C3.43079 2.84486 4.13133 2.34954 4.9075 2.0111C5.68366 1.67266 6.51927 1.49815 7.36368 1.49815C8.20808 1.49815 9.0437 1.67266 9.81986 2.0111C10.596 2.34954 11.2966 2.84486 11.879 3.46703L12.1763 3.77869L12.4725 3.46703C13.0561 2.84633 13.7569 2.35192 14.5328 2.0134C15.3086 1.67489 16.1437 1.49925 16.9878 1.49701C18.6867 1.49701 20.3107 2.20676 21.5032 3.46703C22.6935 4.73053 23.3565 6.41423 23.3529 8.1646V8.1646Z" stroke="#E97400" stroke-width="1.67" stroke-linejoin="round"/>
</svg>
