<svg width="20" height="22" viewBox="0 0 20 22" fill="none" xmlns="http://www.w3.org/2000/svg">
<path d="M18.7997 17.7275C16.5438 19.7618 13.5562 21.0002 10.2793 21.0002C6.80163 21.0002 3.64974 19.6054 1.35254 17.3447" stroke="#E97400" stroke-width="1.6" stroke-linecap="round"/>
<path d="M18.2372 17.0748C17.9999 16.7801 17.746 16.4971 17.476 16.2271C15.4869 14.238 12.7893 13.1206 9.97635 13.1206C7.16344 13.1206 4.46574 14.238 2.47672 16.2271C2.11965 16.5841 1.79068 16.964 1.49121 17.3633" stroke="#E97400" stroke-width="1.6" stroke-linecap="round" stroke-linejoin="round"/>
<path d="M10.2788 11.9091C11.7254 11.9091 13.1128 11.3344 14.1357 10.3115C15.1586 9.28858 15.7333 7.90119 15.7333 6.45455C15.7333 5.00792 15.1586 3.62053 14.1357 2.5976C13.1128 1.57467 11.7254 1 10.2788 1C8.83213 1 7.44475 1.57467 6.42182 2.5976C5.39889 3.62053 4.82422 5.00792 4.82422 6.45455C4.82422 7.90119 5.39889 9.28858 6.42182 10.3115C7.44475 11.3344 8.83213 11.9091 10.2788 11.9091V11.9091Z" stroke="#E97400" stroke-width="1.6" stroke-linecap="round" stroke-linejoin="round"/>
</svg>
