<svg width="21" height="20" viewBox="0 0 21 20" fill="none" xmlns="http://www.w3.org/2000/svg">
<path d="M2.75254 19L2.05254 19.7C1.65254 20.1 1.05254 20.1 0.652538 19.7C0.252538 19.3 0.252538 18.7 0.652538 18.3L11.1525 7.8C10.6525 7 10.3525 6 10.3525 5C10.3525 2.2 12.5525 5.33279e-07 15.3525 6.55671e-07C18.1525 7.78063e-07 20.3525 2.2 20.3525 5C20.3525 7.8 18.1525 10 15.3525 10C14.3525 10 13.3525 9.7 12.5525 9.2L6.95254 14.8L9.05254 16.9C9.45254 17.3 9.45254 17.9 9.05254 18.3C8.65254 18.7 8.05254 18.7 7.65254 18.3L5.55254 16.2L4.15254 17.6L4.85254 18.3C5.25254 18.7 5.25254 19.3 4.85254 19.7C4.45254 20.1 3.85254 20.1 3.45254 19.7L2.75254 19ZM18.3525 5C18.3525 3.3 17.0525 2 15.3525 2C13.6525 2 12.3525 3.3 12.3525 5C12.3525 6.7 13.6525 8 15.3525 8C17.0525 8 18.3525 6.7 18.3525 5Z" fill="#E97400"/>
</svg>
