<svg width="20" height="20" viewBox="0 0 20 20" fill="none" xmlns="http://www.w3.org/2000/svg">
<path d="M5 7C4.45 7 3.97933 6.80433 3.588 6.413C3.19667 6.02167 3.00067 5.55067 3 5C3 4.45 3.196 3.97933 3.588 3.588C3.98 3.19667 4.45067 3.00067 5 3C5.55 3 6.021 3.196 6.413 3.588C6.805 3.98 7.00067 4.45067 7 5C7 5.55 6.80433 6.021 6.413 6.413C6.02167 6.805 5.55067 7.00067 5 7ZM3 20C2.71667 20 2.47933 19.904 2.288 19.712C2.09667 19.52 2.00067 19.2827 2 19C1.45 19 0.979333 18.8043 0.588 18.413C0.196667 18.0217 0.000666667 17.5507 0 17V11H3V10.25C3 9.61667 3.21667 9.08333 3.65 8.65C4.08333 8.21667 4.61667 8 5.25 8C5.58333 8 5.89167 8.06667 6.175 8.2C6.45833 8.33333 6.71667 8.51667 6.95 8.75L8.35 10.3C8.48333 10.4333 8.61267 10.5583 8.738 10.675C8.86333 10.7917 9.00067 10.9 9.15 11H16V2.85C16 2.61667 15.9167 2.41667 15.75 2.25C15.5833 2.08333 15.3833 2 15.15 2C15.05 2 14.954 2.021 14.862 2.063C14.77 2.105 14.6827 2.16733 14.6 2.25L13.35 3.5C13.4333 3.78333 13.45 4.06267 13.4 4.338C13.35 4.61333 13.25 4.86733 13.1 5.1L10.35 2.3C10.5833 2.15 10.8333 2.054 11.1 2.012C11.3667 1.97 11.6333 1.99933 11.9 2.1L13.15 0.85C13.4167 0.583333 13.721 0.375 14.063 0.225C14.405 0.0749999 14.7673 0 15.15 0C15.95 0 16.625 0.275 17.175 0.825C17.725 1.375 18 2.05 18 2.85V11H20V17C20 17.55 19.8043 18.021 19.413 18.413C19.0217 18.805 18.5507 19.0007 18 19C18 19.2833 17.904 19.521 17.712 19.713C17.52 19.905 17.2827 20.0007 17 20H3ZM2 17H18V13H2V17Z" fill="#E97400"/>
</svg>
