<svg width="17" height="12" viewBox="0 0 17 12" fill="none" xmlns="http://www.w3.org/2000/svg">
<path d="M4.25 0C3.71875 0 3.1875 0.18 2.77313 0.514286C2.35875 0.848571 2.125 1.24286 2.125 1.71429V4.28571C1.56187 4.28571 1.0625 4.44857 0.626875 4.79143C0.19125 5.13429 0 5.54571 0 6V10.2857H1.42375L2.125 12H3.1875L3.92062 10.2857H13.1325L13.8125 12H14.875L15.5763 10.2857H17V6C17 5.54571 16.7981 5.14286 16.3731 4.79143C15.9481 4.44 15.4381 4.28571 14.875 4.28571V1.71429C14.875 1.24286 14.6625 0.857143 14.2269 0.514286C13.7912 0.171428 13.2812 0 12.75 0M4.25 1.71429H7.4375V4.28571H4.25M9.5625 1.71429H12.75V4.28571H9.5625M2.125 6H14.875V8.57143H2.125V6Z" fill="#E97400"/>
</svg>
