<svg width="42" height="42" viewBox="0 0 42 42" fill="none" xmlns="http://www.w3.org/2000/svg">
<circle cx="21" cy="21" r="20.5" fill="white" stroke="#E6E6E6"/>
<path d="M18.3333 28V26.25H14.4356C14.0267 26.25 13.6853 26.1152 13.4116 25.8457C13.1372 25.5757 13 25.2394 13 24.8369V15.4131C13 15.0106 13.1372 14.6746 13.4116 14.4051C13.6853 14.135 14.0267 14 14.4356 14H27.5644C27.9733 14 28.3147 14.135 28.5884 14.4051C28.8628 14.6746 29 15.0106 29 15.4131V24.8369C29 25.2394 28.8631 25.5754 28.5893 25.8449C28.315 26.115 27.9733 26.25 27.5644 26.25H23.6667V28H18.3333ZM14.4356 25.375H27.5644C27.7007 25.375 27.8261 25.319 27.9404 25.207C28.0542 25.0944 28.1111 24.971 28.1111 24.8369V15.4131C28.1111 15.279 28.0542 15.1556 27.9404 15.043C27.8261 14.931 27.7007 14.875 27.5644 14.875H14.4356C14.2993 14.875 14.1739 14.931 14.0596 15.043C13.9458 15.1556 13.8889 15.279 13.8889 15.4131V24.8369C13.8889 24.971 13.9458 25.0944 14.0596 25.207C14.1739 25.319 14.2993 25.375 14.4356 25.375Z" fill="#E97400"/>
</svg>
