<svg width="17" height="17" viewBox="0 0 17 17" fill="none" xmlns="http://www.w3.org/2000/svg">
<path fill-rule="evenodd" clip-rule="evenodd" d="M3.85625 0.0622002C3.55567 0.200897 3.47395 0.385461 3.47395 0.925526V1.32204L2.80077 1.3367C2.21801 1.34939 2.09634 1.36146 1.89488 1.4265C1.0011 1.71517 0.356737 2.36418 0.0778897 3.25659L0 3.50586V9.17274V14.8396L0.0778897 15.0889C0.359064 15.9887 1.0115 16.641 1.91151 16.9221L2.16083 17H8.49373H14.8266L15.076 16.9221C15.9696 16.643 16.6302 15.9863 16.9034 15.1055C16.9932 14.8161 17.0291 14.318 16.9725 14.1467C16.7931 13.6033 16.0134 13.5339 15.7512 14.038C15.7238 14.0907 15.6798 14.2771 15.6535 14.4523C15.5964 14.8323 15.4894 15.0643 15.2704 15.2833C15.0756 15.4781 14.8215 15.607 14.5441 15.6518C14.2439 15.7002 2.74353 15.7002 2.4434 15.6518C1.87494 15.56 1.44028 15.1254 1.34849 14.5571C1.30016 14.2576 1.30016 4.08784 1.34849 3.78838C1.44028 3.22003 1.87494 2.78546 2.4434 2.69369C2.56225 2.67451 2.84276 2.65872 3.06672 2.65859L3.47395 2.65833L3.47469 3.06548C3.47525 3.39003 3.48785 3.49958 3.53678 3.60557C3.77212 4.11536 4.50554 4.11536 4.74087 3.60557C4.7898 3.49958 4.8024 3.39003 4.80297 3.06548L4.8037 2.65833H6.29966H7.79562L7.79635 3.06548C7.79692 3.39003 7.80951 3.49958 7.85845 3.60557C8.0986 4.1258 8.85263 4.11071 9.0739 3.58124C9.11067 3.4933 9.12536 3.344 9.12536 3.05823V2.65833H10.6379H12.1505V3.05823C12.1505 3.48406 12.1863 3.63133 12.3267 3.78399C12.5587 4.03639 13.0174 4.04978 13.2764 3.81171C13.4357 3.6653 13.4787 3.50726 13.4795 3.06548L13.4803 2.65833L13.9041 2.65859C14.1372 2.65872 14.4252 2.67451 14.5441 2.69369C15.1125 2.78546 15.5472 3.22003 15.639 3.78838C15.6617 3.9293 15.6742 5.25252 15.6748 7.59399C15.6758 11.0125 15.6787 11.1899 15.7372 11.3165C15.9869 11.8574 16.8067 11.8067 16.9717 11.2402C16.9967 11.1543 17.0046 9.96032 16.9975 7.29486L16.9875 3.47263L16.9093 3.23997C16.6075 2.34085 15.9783 1.71277 15.0926 1.42644C14.8899 1.36093 14.7709 1.34933 14.1701 1.33666L13.4803 1.32214L13.4795 0.918347C13.479 0.597047 13.4663 0.487398 13.4174 0.381606C13.1773 -0.138617 12.4233 -0.123527 12.202 0.405935C12.1652 0.49388 12.1505 0.643179 12.1505 0.928949V1.32885H10.6379H9.12536V0.928949C9.12536 0.503119 9.08963 0.355847 8.94924 0.203191C8.70825 -0.0589147 8.21273 -0.0589147 7.97174 0.203191C7.83136 0.355847 7.79562 0.503119 7.79562 0.928949V1.32885H6.29966H4.8037L4.80297 0.921704C4.80217 0.47992 4.75915 0.321879 4.59985 0.175471C4.40826 -0.000617388 4.09561 -0.0482457 3.85625 0.0622002ZM3.85625 6.37719C3.33593 6.61729 3.35102 7.37117 3.88059 7.59239C4.21146 7.73063 4.59187 7.58435 4.74087 7.26162C4.85612 7.01195 4.79326 6.66821 4.59985 6.49046C4.40826 6.31437 4.09561 6.26674 3.85625 6.37719ZM6.74845 6.37719C6.22812 6.61729 6.24321 7.37117 6.77278 7.59239C7.10365 7.73063 7.48406 7.58435 7.63306 7.26162C7.74831 7.01195 7.68545 6.66821 7.49204 6.49046C7.30046 6.31437 6.9878 6.26674 6.74845 6.37719ZM9.64064 6.37719C9.12031 6.61729 9.1354 7.37117 9.66497 7.59239C9.89811 7.68978 10.1995 7.63756 10.3842 7.46776C10.6464 7.22682 10.6464 6.73139 10.3842 6.49046C10.1926 6.31437 9.87999 6.26674 9.64064 6.37719ZM12.5328 6.37719C12.0125 6.61729 12.0276 7.37117 12.5572 7.59239C12.7903 7.68978 13.0917 7.63756 13.2764 7.46776C13.5386 7.22682 13.5386 6.73139 13.2764 6.49046C13.0848 6.31437 12.7722 6.26674 12.5328 6.37719ZM3.85625 9.26879C3.33593 9.50889 3.35102 10.2628 3.88059 10.484C4.21146 10.6222 4.59187 10.476 4.74087 10.1532C4.85612 9.90355 4.79326 9.55981 4.59985 9.38206C4.40826 9.20597 4.09561 9.15835 3.85625 9.26879ZM6.74845 9.26879C6.22812 9.50889 6.24321 10.2628 6.77278 10.484C7.10365 10.6222 7.48406 10.476 7.63306 10.1532C7.74831 9.90355 7.68545 9.55981 7.49204 9.38206C7.30046 9.20597 6.9878 9.15835 6.74845 9.26879ZM11.1096 9.27348C11.0428 9.32606 10.9867 9.45718 10.8566 9.86586C10.7497 10.2015 10.664 10.4138 10.6187 10.4548C10.5555 10.5121 10.4862 10.5198 9.96134 10.5282C9.59466 10.5341 9.34557 10.5524 9.29707 10.5769C9.14634 10.6532 9.08008 10.8993 9.16808 11.0561C9.19029 11.0957 9.40281 11.2752 9.64037 11.455C9.88528 11.6403 10.0917 11.8226 10.1172 11.876C10.1583 11.9621 10.1478 12.0157 9.99282 12.5094C9.89967 12.806 9.82348 13.0879 9.82348 13.1356C9.82348 13.2707 9.9994 13.427 10.1514 13.427C10.2547 13.427 10.3496 13.3731 10.736 13.0947C11.3409 12.6588 11.2979 12.6588 11.9029 13.0947C12.2893 13.3731 12.3842 13.427 12.4875 13.427C12.6395 13.427 12.8154 13.2707 12.8154 13.1356C12.8154 13.0879 12.7392 12.806 12.6461 12.5094C12.4913 12.0166 12.4806 11.962 12.5214 11.876C12.5473 11.8214 12.7547 11.6402 13.0149 11.4449C13.3919 11.1618 13.4684 11.0894 13.4933 10.9924C13.5319 10.8423 13.498 10.7149 13.3938 10.6183C13.3133 10.5438 13.2856 10.5402 12.7004 10.5298C12.1542 10.52 12.0835 10.5122 12.0201 10.4548C11.9749 10.4138 11.8892 10.2015 11.7823 9.86586C11.5966 9.28272 11.5427 9.20597 11.3194 9.20597C11.2451 9.20597 11.161 9.23303 11.1096 9.27348ZM3.85625 12.1604C3.33593 12.4005 3.35102 13.1544 3.88059 13.3756C4.21146 13.5138 4.59187 13.3676 4.74087 13.0448C4.85612 12.7951 4.79326 12.4514 4.59985 12.2737C4.40826 12.0976 4.09561 12.0499 3.85625 12.1604ZM6.74845 12.1604C6.22812 12.4005 6.24321 13.1544 6.77278 13.3756C7.10365 13.5138 7.48406 13.3676 7.63306 13.0448C7.74831 12.7951 7.68545 12.4514 7.49204 12.2737C7.30046 12.0976 6.9878 12.0499 6.74845 12.1604Z" fill="#E97400"/>
</svg>
