<svg width="46" height="46" viewBox="0 0 46 46" fill="none" xmlns="http://www.w3.org/2000/svg">
<rect width="46" height="46" rx="9" fill="#F7F7F7"/>
<path fill-rule="evenodd" clip-rule="evenodd" d="M21.2191 13.2777C18.0832 14.4484 15.8191 17.1292 15.1525 20.4609C14.9541 21.4519 14.9483 23.3429 15.1407 24.2765C15.8963 27.9428 18.4705 30.766 21.9685 31.7649C23.0692 32.0792 25.5822 32.0781 26.7067 31.763C28.4334 31.279 30.422 29.9732 31.4983 28.6167C31.7742 28.2688 32 27.9534 32 27.9158C32 27.7708 31.6773 27.5231 31.5526 27.5725C31.4807 27.601 31.0404 27.6767 30.5742 27.7408C26.817 28.2568 22.9635 25.9558 21.5157 22.3317C20.9868 21.0078 20.8791 20.3943 20.8882 18.7595C20.8957 17.4321 20.9271 17.152 21.1559 16.3736C21.4336 15.4292 21.8473 14.5107 22.3063 13.8198C22.6469 13.3072 22.6092 12.9915 22.2081 13.0002C22.0648 13.0033 21.6197 13.1281 21.2191 13.2777ZM21.1165 14.5508C19.3225 18.3233 20.1065 22.8481 23.0585 25.7595C24.8845 27.5603 26.9925 28.4427 29.5043 28.4577L30.7479 28.4651L30.3785 28.8556C29.96 29.2979 28.8639 30.1004 28.214 30.4403C26.9274 31.1131 25.5313 31.3918 23.8183 31.3177C22.8378 31.2752 22.4644 31.2112 21.7047 30.955C19.3359 30.1561 17.5325 28.527 16.4648 26.2216C15.854 24.9028 15.6592 24.0029 15.6523 22.4691C15.6478 21.4509 15.6929 20.9726 15.8584 20.2833C16.5066 17.5831 18.2417 15.4061 20.6716 14.2443C21.0526 14.0621 21.3727 13.9218 21.383 13.9323C21.3932 13.9429 21.2733 14.2212 21.1165 14.5508Z" fill="#6A6E72" stroke="#6A6E72" stroke-width="0.6"/>
</svg>
