<svg width="21" height="20" viewBox="0 0 21 20" fill="none" xmlns="http://www.w3.org/2000/svg">
<path fill-rule="evenodd" clip-rule="evenodd" d="M1.06143 0.190219C0.852273 0.294677 0.527888 0.568158 0.340576 0.797943L0 1.21566V9.99988V18.7841L0.340576 19.2018C1.02217 20.0377 0.66119 19.9997 7.90523 19.9998C14.9284 20 14.7858 20.0116 15.3804 19.3883C15.8402 18.9064 15.9143 18.577 15.9143 17.0145V15.5649L16.2747 15.3557C18.6606 13.9707 20.6434 10.6184 20.9642 7.42692C21.0706 6.36908 21.0041 6.28289 19.8512 5.9843C18.7331 5.69484 17.5351 5.25516 16.5891 4.78711L15.9143 4.4532V2.98383C15.9143 1.97806 15.8661 1.40425 15.7616 1.16479C15.5769 0.741747 15.0843 0.27272 14.6594 0.115436C14.4518 0.0385876 12.1844 -0.000108468 7.89447 2.28356e-07C1.97026 0.000108925 1.41055 0.0156526 1.06143 0.190219ZM14.5486 1.32306C14.7921 1.5473 14.8053 1.63415 14.8053 3.01405V4.46863L13.6747 4.99951C13.053 5.29157 11.9733 5.69179 11.2755 5.88897C10.3891 6.13952 9.96532 6.31332 9.86895 6.46604C9.69029 6.7493 9.83357 8.19725 10.1532 9.33933C10.4204 10.2936 11.0429 11.6396 11.643 12.5597C12.1684 13.3655 13.4283 14.65 14.2123 15.1793L14.8053 15.5795V16.9947C14.8053 18.2981 14.7862 18.4297 14.5642 18.6615L14.3229 18.913H7.96046H1.59797L1.32582 18.6462L1.05356 18.3794V9.99988V1.62034L1.32582 1.3536L1.59797 1.08675H7.94493H14.2919L14.5486 1.32306ZM3.13295 3.16068C2.86401 3.31416 2.87732 3.87297 3.15335 4.01776C3.29131 4.09004 4.99708 4.13026 7.92941 4.13026C10.8617 4.13026 12.5675 4.09004 12.7055 4.01776C12.9486 3.89026 12.9977 3.38036 12.7869 3.17373C12.6137 3.00405 3.42905 2.99166 3.13295 3.16068ZM16.3854 5.88288C16.8856 6.12952 17.8702 6.51691 18.5731 6.74387L19.8512 7.15648L19.8118 7.68149C19.764 8.31649 19.3501 9.75259 18.9758 10.5821C18.3286 12.0164 16.7694 13.8705 15.7643 14.401C15.4112 14.5874 15.3406 14.5924 15.0608 14.4511C14.4388 14.137 12.7721 12.369 12.264 11.4845C11.655 10.4246 11.0671 8.75943 10.971 7.82258L10.8981 7.11257L11.4931 6.96463C12.3201 6.75898 13.6166 6.26365 14.4726 5.82636C14.869 5.62375 15.2568 5.45277 15.3345 5.44636C15.4121 5.43984 15.885 5.63636 16.3854 5.88288ZM3.27157 6.33571C2.96149 6.48887 2.85237 6.88637 3.05487 7.1254C3.16367 7.25398 3.64753 7.28246 5.72104 7.28246C8.15642 7.28246 8.259 7.27387 8.37523 7.06094C8.54069 6.758 8.40994 6.42126 8.07901 6.298C7.65138 6.13865 3.60616 6.17039 3.27157 6.33571ZM17.4114 7.28279C17.2777 7.33605 16.7933 8.08964 16.1915 9.18031L15.1934 10.9895L14.6006 10.3316C14.1349 9.81477 13.9397 9.67379 13.6896 9.67379C13.3907 9.67379 13.1417 9.91455 13.1417 10.2035C13.1417 10.3809 14.9117 12.3751 15.1292 12.4428C15.2388 12.477 15.4089 12.4746 15.5071 12.4376C15.7631 12.3414 18.1566 7.99323 18.1125 7.70453C18.0649 7.39192 17.6953 7.16974 17.4114 7.28279ZM3.13295 9.57379C2.86401 9.72727 2.87732 10.2861 3.15335 10.4309C3.44114 10.5818 8.31434 10.5818 8.60213 10.4309C8.84523 10.3034 8.89435 9.79346 8.68353 9.58683C8.51275 9.41944 3.42417 9.40748 3.13295 9.57379ZM3.07195 12.8477C2.90083 13.0155 2.90083 13.3974 3.07195 13.5651C3.26226 13.7517 10.0458 13.7517 10.2361 13.5651C10.4073 13.3974 10.4073 13.0155 10.2361 12.8477C10.0458 12.6612 3.26226 12.6612 3.07195 12.8477ZM3.13295 15.9869C2.86401 16.1404 2.87732 16.6992 3.15335 16.844C3.47818 17.0143 12.6121 16.9973 12.7869 16.826C12.9584 16.6579 12.9584 16.1681 12.7869 15.9999C12.6137 15.8303 3.42905 15.8179 3.13295 15.9869Z" fill="black"/>
</svg>
