<svg width="13" height="13" viewBox="0 0 13 13" fill="none" xmlns="http://www.w3.org/2000/svg">
<path fill-rule="evenodd" clip-rule="evenodd" d="M7.63618 0.410449C7.88411 0.162477 8.21602 0.0164895 8.56634 0.00131379C8.91667 -0.0138619 9.25996 0.102878 9.52841 0.328481L9.61738 0.410449L12.5899 3.38304C12.8377 3.63095 12.9835 3.96272 12.9987 4.31289C13.0139 4.66307 12.8972 5.00621 12.6718 5.27463L12.5899 5.3643L5.36424 12.5902C5.13163 12.8228 4.82461 12.9661 4.49694 12.9951L4.37364 13H0.707572C0.533255 13 0.365071 12.9357 0.23527 12.8193C0.10547 12.7029 0.0231885 12.5428 0.00420343 12.3695L0 12.2924V8.62624C8.03768e-05 8.29727 0.115898 7.97883 0.327165 7.72668L0.411233 7.63561L7.63618 0.410449ZM6.427 3.60092L1.40113 8.62694V11.5988H4.37434L9.4002 6.57281L6.4277 3.60022L6.427 3.60092ZM8.62678 1.40108L7.4176 2.61029L10.3901 5.58288L11.5993 4.37367L8.62678 1.40108Z" fill="#E97400"/>
</svg>
