<svg width="22" height="20" viewBox="0 0 22 20" fill="none" xmlns="http://www.w3.org/2000/svg">
<path fill-rule="evenodd" clip-rule="evenodd" d="M13.8928 0.132704C13.7756 0.246056 13.7168 0.762747 13.7147 1.69586C13.7108 3.45916 13.4745 4.0275 12.5007 4.61501C11.9721 4.93393 11.7381 5.00196 11.4082 4.93247C11.1772 4.88385 10.4071 4.81687 9.69667 4.78358C8.46137 4.72572 8.38956 4.73761 8.05193 5.05626L7.69877 5.38958V8.61457C7.69877 11.7045 7.71123 11.8545 7.99678 12.1971C8.29144 12.5506 8.31257 12.5543 9.85149 12.53C11.022 12.5115 11.5372 12.5583 11.9286 12.7186C12.3614 12.8961 13.0335 12.932 15.9233 12.932C19.2489 12.932 19.4241 12.9193 20.0189 12.6347C20.3697 12.467 20.7541 12.1503 20.9015 11.9079C21.2514 11.3324 22.1403 6.20498 21.9811 5.68089C21.6005 4.4286 21.1439 4.21378 18.862 4.21312L17.0773 4.21259V2.88724C17.0773 0.750064 16.6039 0.0926736 15.0057 0.0110282C14.3683 -0.0214714 14.0118 0.0175017 13.8928 0.132704ZM15.6215 1.01085C15.9866 1.24086 16.0974 1.752 16.0974 3.20365C16.0974 4.40799 16.1429 4.76509 16.3173 4.92983C16.4964 5.09867 16.9012 5.13738 18.487 5.13738C21.3155 5.13738 21.235 4.99589 20.6373 8.92081C20.3207 11.0004 20.2371 11.3198 19.9344 11.6109L19.5907 11.9412H16.0283C11.4251 11.9412 11.8432 12.2598 11.785 8.70718L11.7419 6.07432L12.4849 5.72409C14.1384 4.94449 14.6918 4.10532 14.8025 2.20938C14.8732 0.998171 14.8984 0.90992 15.1729 0.911769C15.335 0.912958 15.5368 0.95748 15.6215 1.01085ZM2.25602 1.99205C1.81397 2.08519 1.45689 2.29657 0.977884 2.74866C0.043953 3.62998 0 3.91521 0 9.0833C0 14.1336 0.0487122 14.4249 1.03541 15.2833C1.74384 15.8998 2.3743 16.101 3.60065 16.1019L4.47187 16.1027L4.5105 18.0513L4.54927 20H4.91993C5.20661 20 5.79787 19.5438 7.53122 17.9853L9.77184 15.9706H14.2202C18.4748 15.9706 18.6956 15.9583 19.2853 15.6888C20.4124 15.1738 21.1589 13.7277 20.3536 13.6191C20.1527 13.592 19.9384 13.7306 19.6725 14.0597C18.8641 15.0601 18.9548 15.0447 13.8333 15.0453L9.25952 15.0458L7.35932 16.7778L5.45913 18.5096V16.9363C5.45913 15.8887 5.403 15.3099 5.29115 15.2043C5.18449 15.1037 4.64572 15.0458 3.81439 15.0458C2.32027 15.0458 1.82069 14.874 1.39418 14.2136C1.13634 13.8148 1.1208 13.5184 1.12038 8.99505C1.11982 3.69881 1.12654 3.65389 2.00154 3.15041C2.42343 2.90746 2.73684 2.8924 7.37388 2.892C11.6632 2.89147 12.3264 2.86465 12.5181 2.68392C12.7942 2.42313 12.7942 2.30291 12.5181 2.04212C12.3262 1.86113 11.6961 1.83642 7.58385 1.84871C4.9909 1.8565 2.59351 1.92097 2.25602 1.99205ZM10.7459 8.67138L10.7836 11.6109H9.8011H8.81859V8.63227V5.6538L9.76344 5.69278L10.7083 5.73188L10.7459 8.67138Z" fill="black"/>
</svg>
