<svg width="18" height="20" viewBox="0 0 18 20" fill="none" xmlns="http://www.w3.org/2000/svg">
<path d="M2.44125 2.37434H2.54694L2.5825 2.27482C2.80437 1.65394 3.21594 1.11597 3.76083 0.735285C4.30575 0.354578 4.95706 0.15 5.625 0.15C6.29294 0.15 6.94425 0.354578 7.48917 0.735285C8.03406 1.11597 8.44563 1.65394 8.6675 2.27482L8.70306 2.37434H8.80875H16.875C17.1342 2.37434 17.3824 2.47602 17.5651 2.65642C17.7477 2.83676 17.85 3.08094 17.85 3.33515C17.85 3.58935 17.7477 3.83353 17.5651 4.01387C17.3824 4.19427 17.1342 4.29596 16.875 4.29596H8.80875H8.70306L8.6675 4.39548C8.44563 5.01635 8.03406 5.55432 7.48917 5.93501C6.94425 6.31572 6.29294 6.5203 5.625 6.5203C4.95706 6.5203 4.30575 6.31572 3.76083 5.93501C3.21594 5.55432 2.80437 5.01635 2.5825 4.39548L2.54694 4.29596H2.44125H1.125C0.865804 4.29596 0.617602 4.19427 0.434896 4.01387C0.252254 3.83353 0.15 3.58935 0.15 3.33515C0.15 3.08094 0.252254 2.83676 0.434896 2.65642C0.617602 2.47602 0.865804 2.37434 1.125 2.37434H2.44125ZM9.19125 9.03919H9.29694L9.3325 8.93967C9.55437 8.3188 9.96594 7.78082 10.5108 7.40014C11.0557 7.01943 11.7071 6.81485 12.375 6.81485C13.0429 6.81485 13.6943 7.01943 14.2392 7.40014C14.7841 7.78082 15.1956 8.3188 15.4175 8.93967L15.4531 9.03919H15.5588H16.875C17.1342 9.03919 17.3824 9.14087 17.5651 9.32128C17.7477 9.50161 17.85 9.7458 17.85 10C17.85 10.2542 17.7477 10.4984 17.5651 10.6787C17.3824 10.8591 17.1342 10.9608 16.875 10.9608H15.5588H15.4531L15.4175 11.0603C15.1956 11.6812 14.7841 12.2192 14.2392 12.5999C13.6943 12.9806 13.0429 13.1851 12.375 13.1851C11.7071 13.1851 11.0557 12.9806 10.5108 12.5999C9.96594 12.2192 9.55437 11.6812 9.3325 11.0603L9.29694 10.9608H9.19125H1.125C0.865804 10.9608 0.617602 10.8591 0.434896 10.6787C0.252254 10.4984 0.15 10.2542 0.15 10C0.15 9.7458 0.252254 9.50161 0.434896 9.32128C0.617601 9.14087 0.865803 9.03919 1.125 9.03919H9.19125ZM2.44125 15.704H2.54694L2.5825 15.6045C2.80437 14.9836 3.21594 14.4457 3.76083 14.065C4.30575 13.6843 4.95706 13.4797 5.625 13.4797C6.29294 13.4797 6.94425 13.6843 7.48917 14.065C8.03406 14.4457 8.44563 14.9836 8.6675 15.6045L8.70306 15.704H8.80875H16.875C17.1342 15.704 17.3824 15.8057 17.5651 15.9861C17.7477 16.1665 17.85 16.4106 17.85 16.6649C17.85 16.9191 17.7477 17.1632 17.5651 17.3436C17.3824 17.524 17.1342 17.6257 16.875 17.6257H8.80875H8.70306L8.6675 17.7252C8.44563 18.3461 8.03406 18.884 7.48917 19.2647C6.94425 19.6454 6.29294 19.85 5.625 19.85C4.95706 19.85 4.30575 19.6454 3.76083 19.2647C3.21594 18.884 2.80437 18.3461 2.5825 17.7252L2.54694 17.6257H2.44125H1.125C0.865803 17.6257 0.617601 17.524 0.434896 17.3436C0.252254 17.1632 0.15 16.9191 0.15 16.6649C0.15 16.4106 0.252254 16.1665 0.434896 15.9861C0.617602 15.8057 0.865804 15.704 1.125 15.704H2.44125ZM5.625 2.07434C5.28746 2.07434 4.96337 2.20672 4.72411 2.44295C4.4848 2.67925 4.35 3.00014 4.35 3.33515C4.35 3.67015 4.4848 3.99105 4.72411 4.22734C4.96337 4.46358 5.28746 4.59596 5.625 4.59596C5.96254 4.59596 6.28663 4.46358 6.52589 4.22734C6.7652 3.99105 6.9 3.67015 6.9 3.33515C6.9 3.00014 6.7652 2.67925 6.52589 2.44295C6.28663 2.20672 5.96254 2.07434 5.625 2.07434ZM12.375 8.73919C12.0375 8.73919 11.7134 8.87157 11.4741 9.1078C11.2348 9.3441 11.1 9.66499 11.1 10C11.1 10.335 11.2348 10.6559 11.4741 10.8922C11.7134 11.1284 12.0375 11.2608 12.375 11.2608C12.7125 11.2608 13.0366 11.1284 13.2759 10.8922C13.5152 10.6559 13.65 10.335 13.65 10C13.65 9.66499 13.5152 9.3441 13.2759 9.1078C13.0366 8.87157 12.7125 8.73919 12.375 8.73919ZM5.625 15.404C5.28746 15.404 4.96337 15.5364 4.72411 15.7727C4.4848 16.0089 4.35 16.3298 4.35 16.6649C4.35 16.9999 4.4848 17.3208 4.72411 17.5571C4.96337 17.7933 5.28746 17.9257 5.625 17.9257C5.96254 17.9257 6.28663 17.7933 6.52589 17.5571C6.7652 17.3208 6.9 16.9999 6.9 16.6649C6.9 16.3298 6.7652 16.0089 6.52589 15.7727C6.28663 15.5364 5.96254 15.404 5.625 15.404Z" fill="#8F8F8F" stroke="#F9FAFC" stroke-width="0.3"/>
</svg>
