<svg width="15" height="20" viewBox="0 0 15 20" fill="none" xmlns="http://www.w3.org/2000/svg">
<path fill-rule="evenodd" clip-rule="evenodd" d="M0.137006 0.134273C0.0140406 0.254872 0 1.26727 0 10C0 18.7327 0.0140406 19.7451 0.137006 19.8657C0.259448 19.9856 1.0473 20 7.5 20C13.9527 20 14.7406 19.9856 14.863 19.8657C14.986 19.7451 15 18.7327 15 10C15 1.26727 14.986 0.254872 14.863 0.134273C14.7406 0.0143589 13.9527 0 7.5 0C1.0473 0 0.259448 0.0143589 0.137006 0.134273ZM14.1715 10V19.188H7.5H0.828488L0.805988 10.0855C0.793692 5.07906 0.802325 0.934616 0.825261 0.875556C0.858401 0.790342 2.24363 0.772735 7.51927 0.790086L14.1715 0.811966V10ZM1.91424 2.44103C1.83366 2.53615 1.82494 2.64009 1.88363 2.80427C1.96134 3.02162 2.00023 3.03556 2.59631 3.05932L3.22674 3.08444V4.77299C3.22674 6.54513 3.25195 6.66667 3.61919 6.66667C3.98651 6.66667 4.01163 6.5453 4.01163 4.76923V3.07692H4.60465C5.2323 3.07692 5.40698 2.99316 5.40698 2.69231C5.40698 2.33581 5.2759 2.30769 3.61238 2.30769C2.2827 2.30769 2.00895 2.32915 1.91424 2.44103ZM6.39706 2.47231C5.9073 2.76504 5.81765 3.4165 6.19544 3.9365C6.3593 4.16205 6.35921 4.16778 6.19273 4.31547C5.76427 4.69547 5.66817 5.48898 5.97916 6.07855C6.33087 6.74496 7.36474 6.86641 7.98523 6.31419C8.16235 6.1565 8.16916 6.15803 8.41578 6.41034C8.97706 6.98453 9.54828 6.49 9.02616 5.88188C8.76297 5.5753 8.76009 5.53923 8.98256 5.34188C9.26294 5.09325 9.20032 4.70889 8.85933 4.58513C8.74203 4.54256 8.62221 4.5906 8.45555 4.74709L8.21861 4.96957L7.51046 4.18402C7.12099 3.75205 6.80233 3.34769 6.80233 3.28547C6.80233 3.08291 6.97378 3.06222 7.20122 3.23752C7.50349 3.4706 7.79538 3.36761 7.83166 3.01504C7.85232 2.81436 7.79826 2.70855 7.5852 2.53282C7.25311 2.25897 6.79326 2.23556 6.39706 2.47231ZM11.032 2.44915C10.596 2.67342 10.1265 3.17333 9.96515 3.58504C9.78471 4.0453 9.77032 4.86205 9.93427 5.33171C10.0798 5.74838 10.5705 6.28675 11.0008 6.50188C11.7283 6.86564 12.9207 6.56513 12.9774 6.00367C12.9979 5.80137 12.9586 5.71385 12.8131 5.63752C12.6543 5.55427 12.5628 5.56957 12.2766 5.72718C11.4656 6.17393 10.6395 5.54821 10.6395 4.48718C10.6395 3.42615 11.4656 2.80043 12.2766 3.24718C12.5628 3.40479 12.6543 3.42009 12.8131 3.33684C12.9586 3.26051 12.9979 3.17299 12.9774 2.97068C12.9229 2.43154 11.7022 2.10436 11.032 2.44915ZM7.27186 5.12846C7.44532 5.31658 7.58721 5.50453 7.58721 5.54598C7.58721 5.63966 7.19477 5.89744 7.05209 5.89744C6.7111 5.89744 6.51105 5.33094 6.71817 4.95162C6.84532 4.7188 6.91456 4.74085 7.27186 5.12846ZM2.19767 9.33333C1.95305 9.57308 2.13733 10 2.48547 10C2.58619 10 2.7157 9.95385 2.77326 9.89744C2.83081 9.84103 2.87791 9.7141 2.87791 9.61539C2.87791 9.51667 2.83081 9.38974 2.77326 9.33333C2.7157 9.27692 2.58619 9.23077 2.48547 9.23077C2.38474 9.23077 2.25523 9.27692 2.19767 9.33333ZM4.41017 9.41915C4.29541 9.57974 4.29296 9.63316 4.39404 9.78239C4.51073 9.95462 4.57709 9.95726 8.77308 9.95726H13.0336L13.1161 9.72735C13.2983 9.21966 13.3954 9.23077 8.75878 9.23077H4.54474L4.41017 9.41915ZM2.19767 11.8974C1.95305 12.1372 2.13733 12.5641 2.48547 12.5641C2.58619 12.5641 2.7157 12.5179 2.77326 12.4615C2.83081 12.4051 2.87791 12.2782 2.87791 12.1795C2.87791 12.0808 2.83081 11.9538 2.77326 11.8974C2.7157 11.841 2.58619 11.7949 2.48547 11.7949C2.38474 11.7949 2.25523 11.841 2.19767 11.8974ZM4.41017 11.9832C4.29541 12.1438 4.29296 12.1974 4.39404 12.3465C4.51038 12.5182 4.58991 12.5218 8.74988 12.5435L12.9871 12.5657L13.0869 12.3832C13.1593 12.2505 13.1608 12.1451 13.0922 11.9978L12.9979 11.7949H8.77134H4.54474L4.41017 11.9832ZM2.19767 14.4615C1.95305 14.7013 2.13733 15.1282 2.48547 15.1282C2.58619 15.1282 2.7157 15.0821 2.77326 15.0256C2.83081 14.9692 2.87791 14.8423 2.87791 14.7436C2.87791 14.6449 2.83081 14.5179 2.77326 14.4615C2.7157 14.4051 2.58619 14.359 2.48547 14.359C2.38474 14.359 2.25523 14.4051 2.19767 14.4615ZM4.41017 14.5473C4.29541 14.7079 4.29296 14.7615 4.39404 14.9106C4.51038 15.0823 4.58991 15.0859 8.74988 15.1076L12.9871 15.1298L13.0869 14.9473C13.1593 14.8146 13.1608 14.7092 13.0922 14.5619L12.9979 14.359H8.77134H4.54474L4.41017 14.5473ZM2.19767 17.0256C2.06311 17.1575 2.06311 17.4579 2.19767 17.5897C2.4423 17.8295 2.87791 17.6489 2.87791 17.3077C2.87791 17.0786 2.71919 16.9231 2.48547 16.9231C2.38474 16.9231 2.25523 16.9692 2.19767 17.0256ZM4.46512 17.0256C4.40756 17.0821 4.36047 17.209 4.36047 17.3077C4.36047 17.6934 4.34773 17.6923 8.77892 17.6923C12.9822 17.6923 12.9882 17.6921 13.0873 17.5106C13.1594 17.3786 13.1607 17.2732 13.0922 17.126L12.9979 16.9231H8.78381C5.62247 16.9231 4.5436 16.9487 4.46512 17.0256Z" fill="black"/>
</svg>
