<svg width="42" height="42" viewBox="0 0 42 42" fill="none" xmlns="http://www.w3.org/2000/svg">
<circle cx="21" cy="21" r="20.5" fill="white" stroke="#E6E6E6"/>
<path d="M16.2624 19.9978L14.3976 21.0745C14.2917 21.1357 14.2143 21.2364 14.1827 21.3546C14.151 21.4728 14.1676 21.5988 14.2288 21.7048L17.6125 27.5655C17.6427 27.618 17.6831 27.664 17.7312 27.7009C17.7792 27.7377 17.8341 27.7648 17.8926 27.7805C17.9512 27.7962 18.0122 27.8002 18.0723 27.7923C18.1323 27.7843 18.1903 27.7647 18.2428 27.7344L20.1075 26.6578C20.16 26.6275 20.206 26.5871 20.2429 26.5391C20.2798 26.491 20.3068 26.4361 20.3225 26.3776C20.3382 26.3191 20.3422 26.258 20.3343 26.1979C20.3264 26.1379 20.3067 26.0799 20.2764 26.0275L16.8927 20.1667C16.8315 20.0608 16.7308 19.9834 16.6126 19.9517C16.4943 19.9201 16.3684 19.9367 16.2624 19.9978ZM24.2543 15.3837L22.3895 16.4603C22.2836 16.5215 22.2062 16.6223 22.1746 16.7405C22.1429 16.8587 22.1595 16.9847 22.2207 17.0906L25.6043 22.9514C25.6346 23.0038 25.675 23.0498 25.7231 23.0867C25.7711 23.1236 25.826 23.1507 25.8845 23.1664C25.9431 23.182 26.0041 23.186 26.0642 23.1781C26.1242 23.1702 26.1822 23.1506 26.2347 23.1203L28.0994 22.0436C28.1519 22.0133 28.1979 21.973 28.2348 21.9249C28.2717 21.8769 28.2987 21.822 28.3144 21.7635C28.3301 21.7049 28.3341 21.6439 28.3262 21.5838C28.3183 21.5237 28.2986 21.4658 28.2683 21.4133L24.8846 15.5526C24.8234 15.4466 24.7227 15.3693 24.6045 15.3376C24.4862 15.3059 24.3603 15.3225 24.2543 15.3837Z" stroke="#E97400" stroke-width="0.8" stroke-linecap="round" stroke-linejoin="round"/>
<path d="M18.585 23.0964L23.9129 20.0204M14.8459 27.3864L13.0002 24.1896C12.9391 24.0837 12.9225 23.9577 12.9541 23.8395C12.9858 23.7213 13.0632 23.6205 13.1691 23.5593L14.3679 22.8672C14.4739 22.806 14.5998 22.7894 14.718 22.8211C14.8363 22.8528 14.937 22.9301 14.9982 23.0361L16.8439 26.2329C16.9051 26.3388 16.9216 26.4648 16.89 26.583C16.8583 26.7012 16.781 26.802 16.675 26.8632L15.4762 27.5553C15.3702 27.6165 15.2443 27.6331 15.1261 27.6014C15.0079 27.5697 14.9071 27.4924 14.8459 27.3864ZM29.4977 18.9272L27.6521 15.7304C27.5909 15.6244 27.4901 15.5471 27.3719 15.5154C27.2537 15.4837 27.1277 15.5003 27.0218 15.5615L25.823 16.2536C25.717 16.3148 25.6397 16.4156 25.608 16.5338C25.5763 16.652 25.5929 16.778 25.6541 16.8839L27.4997 20.0807C27.5609 20.1867 27.6617 20.264 27.7799 20.2957C27.8981 20.3274 28.0241 20.3108 28.13 20.2496L29.3288 19.5575C29.4348 19.4963 29.5121 19.3955 29.5438 19.2773C29.5755 19.1591 29.5589 19.0331 29.4977 18.9272Z" stroke="#E97400" stroke-width="0.8" stroke-linecap="round" stroke-linejoin="round"/>
</svg>
