<svg width="46" height="46" viewBox="0 0 46 46" fill="none" xmlns="http://www.w3.org/2000/svg">
<rect width="46" height="46" rx="9" fill="#F7F7F7"/>
<path d="M22.4066 14.0508L22.4066 14.0508C22.4235 14.047 22.4401 14.0433 22.4564 14.0396C22.8631 13.9483 23.0824 13.899 23.3156 13.9C23.5476 13.901 23.792 13.9519 24.2505 14.0473C24.2685 14.0511 24.2869 14.0549 24.3056 14.0588C24.3056 14.0588 24.3056 14.0588 24.3056 14.0588L24.2852 14.1567C25.4068 14.3896 26.5286 15.0651 27.0996 15.851L27.1805 15.7923C27.3417 16.0142 27.521 16.3962 27.6963 16.8486C27.8726 17.3036 28.048 17.8384 28.1998 18.372C28.3516 18.9055 28.4801 19.4397 28.5622 19.8934L22.4066 14.0508ZM22.4066 14.0508C20.8322 14.4046 19.4865 15.6117 19.0507 17.0713C18.9273 17.4841 18.705 18.2101 18.5564 18.6842L18.5564 18.6842M22.4066 14.0508L18.5564 18.6842M18.5564 18.6842C18.2491 19.6652 18.1374 20.4715 18.2368 21.1276C18.3368 21.7888 18.6506 22.2929 19.1798 22.6641L19.1798 22.6641M18.5564 18.6842L19.1798 22.6641M19.1798 22.6641C19.3654 22.7942 19.4909 22.9173 19.5799 23.0602C19.669 23.2032 19.7257 23.3726 19.7635 23.6013C19.9116 24.4968 20.2164 25.1188 20.7795 25.6564L20.8485 25.5841L19.1798 22.6641ZM27.112 23.4676C27.0561 23.8429 26.8298 24.4169 26.5894 24.8919C26.4686 25.1307 26.3419 25.3494 26.2275 25.5097C26.1706 25.5896 26.1145 25.6581 26.0618 25.7077C26.0355 25.7326 26.0077 25.7549 25.9789 25.7714C25.9508 25.7876 25.9152 25.8021 25.8751 25.8021C25.8751 25.8021 25.8731 25.802 25.8687 25.8048C25.8638 25.8079 25.8565 25.8144 25.8487 25.8262C25.8327 25.8503 25.8197 25.8891 25.8197 25.9364C25.8197 25.942 25.8209 25.9536 25.8417 25.9731C25.8645 25.9944 25.9052 26.0194 25.9719 26.0452C26.1049 26.0965 26.3137 26.1404 26.6073 26.1752C29.0829 26.4688 31.1186 28.2195 31.897 30.7144L31.897 30.7145C31.976 30.968 32.0365 31.2121 32.0701 31.4019C32.0868 31.4964 32.0973 31.5801 32.0995 31.646C32.1007 31.6788 32.0999 31.7104 32.0956 31.7382C32.0921 31.7613 32.0836 31.8016 32.0539 31.8326C32.0356 31.8517 32.014 31.8591 32.0093 31.8606L32.0088 31.8608C32.0005 31.8637 31.9922 31.8656 31.9858 31.867C31.9724 31.8698 31.9564 31.8721 31.9391 31.8741C31.9041 31.8783 31.8555 31.8823 31.7952 31.8863C31.674 31.8943 31.4999 31.9024 31.2791 31.9106C30.8373 31.9268 30.2058 31.9432 29.4314 31.9589C27.8825 31.9902 25.7607 32.0184 23.4397 32.036L15.0008 32.1L14.8896 32.1008L14.9005 31.9902L14.9427 31.5589L15.0423 31.5686L14.9427 31.5589C14.9822 31.1568 15.2096 30.5229 15.5009 29.9047C15.793 29.2846 16.1578 28.6627 16.4827 28.2853C16.4828 28.2853 16.4828 28.2853 16.4828 28.2853L16.5585 28.3505L27.112 23.4676ZM27.112 23.4676C27.1438 23.2539 27.1912 23.089 27.2495 22.972C27.3081 22.8543 27.3721 22.7961 27.4318 22.7746L27.112 23.4676ZM25.2551 15.1364L25.255 15.1364C22.99 14.0571 20.355 15.1004 19.6969 17.3054C19.6969 17.3054 19.6969 17.3054 19.6969 17.3054L19.6011 17.2768L25.2551 15.1364ZM25.2551 15.1364C25.7023 15.3495 26.1594 15.7394 26.5326 16.1983C26.9058 16.6574 27.1878 17.1766 27.2934 17.6421C27.3875 18.0574 27.609 18.8654 27.7859 19.4392C27.9619 20.0106 28.0343 20.4199 28.0058 20.7618C27.9786 21.0874 27.8591 21.3604 27.6318 21.6608C27.8161 20.9362 27.8019 19.9062 27.5897 19.1614M25.2551 15.1364L19.9186 17.1777M19.0767 20.0264C18.9655 20.5197 18.9873 20.9015 19.1534 21.4574L19.1535 21.4574L19.2182 21.6738L19.1633 21.6023C19.1633 21.6023 19.1633 21.6023 19.1633 21.6023C18.7536 21.0688 18.7424 20.3978 19.2045 18.9164L19.9186 17.1777M19.0767 20.0264L19.1743 20.0484L19.0767 20.0264C19.0767 20.0264 19.0767 20.0264 19.0767 20.0264ZM19.0767 20.0264C19.4918 18.1849 19.5992 17.7694 19.8245 17.1439M19.8245 17.1439C19.8245 17.1439 19.8245 17.1439 19.8245 17.1439L19.9186 17.1777M19.8245 17.1439L19.9186 17.1777M19.8245 17.1439C20.2513 15.9584 21.482 15.247 22.8039 15.075C24.1271 14.9028 25.5763 15.2655 26.4615 16.27C26.7924 16.6455 27.1007 17.218 27.1978 17.6447L27.1978 17.6447C27.2853 18.0288 27.4618 18.7119 27.5897 19.1614M27.5897 19.1614L27.4935 19.1887L27.5897 19.1614ZM25.0151 19.605C24.5045 19.4989 23.7737 19.2289 23.3844 19.001L23.435 18.9147L23.3844 19.001L22.7537 18.6318L22.2515 19.01L22.1913 18.9301L22.2515 19.01C21.8613 19.3038 21.3508 19.4783 20.7186 19.5434L20.7186 19.5434C20.4677 19.5692 20.2306 19.6114 20.0515 19.658C19.9616 19.6814 19.889 19.7052 19.8373 19.7275C19.8114 19.7387 19.7932 19.7485 19.7816 19.7563C19.7776 19.7589 19.7751 19.7609 19.7736 19.7621C19.7362 19.834 19.7091 19.9514 19.698 20.1076C19.6869 20.2649 19.6926 20.4516 19.7141 20.6505C19.7572 21.049 19.8624 21.4858 20.0122 21.8191L19.921 21.8601L20.0122 21.8191C20.104 22.0232 20.1869 22.2617 20.2469 22.4821C20.3063 22.7004 20.3458 22.9096 20.3458 23.0525C20.3458 23.4529 20.4856 23.9189 20.7148 24.3446C20.9439 24.7702 21.2569 25.1451 21.593 25.3687L21.593 25.3687C21.8421 25.5343 22.0498 25.6379 22.2853 25.702C22.5222 25.7665 22.7928 25.7925 23.1699 25.7957C24.0141 25.8031 24.6404 25.6877 25.1231 25.4246C25.6033 25.1629 25.9524 24.749 26.2306 24.1362C26.2857 24.0149 26.3186 23.9209 26.3328 23.8526C26.3423 23.8069 26.3413 23.7823 26.3398 23.7709C26.3342 23.7712 26.3258 23.7722 26.3138 23.7749C26.2674 23.7853 26.1967 23.8161 26.0987 23.8756C26.0987 23.8756 26.0987 23.8756 26.0987 23.8756L26.0468 23.7902L25.0151 19.605ZM25.0151 19.605C25.2711 19.6582 25.5666 19.6966 25.8372 19.7158C26.106 19.7349 26.3575 19.7356 26.5228 19.7105L26.5228 19.7105M25.0151 19.605L26.5228 19.7105M26.5228 19.7105C26.6745 19.6874 26.7852 19.6811 26.8674 19.6931M26.5228 19.7105L26.8674 19.6931M26.8674 19.6931C26.9456 19.7046 26.9925 19.7316 27.0264 19.7744M26.8674 19.6931L27.0264 19.7744M27.0264 19.7744C27.0637 19.8214 27.0939 19.8983 27.1135 20.0264M27.0264 19.7744L27.1135 20.0264M27.1135 20.0264C27.1329 20.1534 27.1402 20.3196 27.1402 20.5361M27.1135 20.0264L27.1402 20.5361M27.1402 20.5361C27.1402 20.8763 26.9643 21.4383 26.7205 21.9645M27.1402 20.5361L26.7205 21.9645M26.7205 21.9645C26.5997 22.2253 26.4644 22.4726 26.3302 22.6736M26.7205 21.9645L26.3302 22.6736M26.3302 22.6736C26.1943 22.8774 26.0657 23.0243 25.9607 23.0947M26.3302 22.6736L25.9607 23.0947M25.9607 23.0947C25.7404 23.2424 25.4714 23.3298 25.2431 23.3491M25.9607 23.0947L25.2431 23.3491M25.2431 23.3491C25.1289 23.3588 25.03 23.351 24.9549 23.3288M25.2431 23.3491L24.9549 23.3288M24.9549 23.3288C24.8791 23.3064 24.8378 23.2729 24.8192 23.2387L24.9549 23.3288ZM28.1784 22.0596C28.4015 21.7208 28.5855 21.3114 28.6447 20.9529L27.4318 22.7746C27.5613 22.728 27.6932 22.6306 27.8174 22.5082C27.9429 22.3846 28.0665 22.2296 28.1784 22.0596ZM26.6273 18.8753L26.6273 18.8753C26.6168 18.9065 26.5873 18.9408 26.5169 18.9701C26.4462 18.9996 26.3457 19.0188 26.2174 19.025C25.9618 19.0373 25.6208 18.9968 25.2489 18.9129C24.5035 18.7447 23.6642 18.4094 23.1768 18.0155L23.1768 18.0155L22.7197 17.6462L22.6468 17.5873L22.5833 17.6563L22.1646 18.1117C21.7585 18.5531 21.0323 18.8729 20.4369 18.8729C20.3016 18.8729 20.2644 18.8486 20.2437 18.8168C20.2296 18.7952 20.216 18.759 20.2068 18.6962C20.1976 18.634 20.1938 18.5529 20.1938 18.4466C20.1938 17.5007 20.8386 16.538 21.8115 16.0591C22.1047 15.9149 22.6507 15.8271 23.2409 15.8114C23.8283 15.7959 24.4373 15.8523 24.8499 15.9823L24.8799 15.8869L24.8499 15.9823C25.3937 16.1537 25.9201 16.643 26.2707 17.2178C26.6229 17.7953 26.7789 18.4272 26.6273 18.8753ZM26.3495 23.7718C26.3494 23.7719 26.3485 23.7718 26.3471 23.7711C26.3489 23.7714 26.3496 23.7717 26.3495 23.7718ZM24.718 27.6285L24.718 27.6285C24.1617 27.9615 23.475 28.0083 22.9144 27.8415C22.3511 27.6738 21.9423 27.3012 21.892 26.8178L21.8919 26.8178L21.8548 26.4617L22.6942 26.5511L22.6942 26.5511C23.2292 26.608 23.9487 26.5887 24.2987 26.504L24.2987 26.504C24.5446 26.4444 24.7244 26.4013 24.8584 26.3793C24.9974 26.3564 25.0642 26.3607 25.0976 26.3746C25.1154 26.382 25.135 26.396 25.1483 26.4676C25.1625 26.5439 25.1635 26.6543 25.1635 26.8192C25.1635 27.0679 25.1424 27.2073 25.0837 27.3136C25.0254 27.4191 24.9222 27.5064 24.718 27.6285ZM28.3546 27.4183L28.3546 27.4183C28.8808 27.6916 29.4334 28.1413 29.9131 28.6636C30.3927 29.1859 30.7944 29.7751 31.0231 30.3237C31.1279 30.5751 31.2231 30.8141 31.2919 30.9966C31.3263 31.0879 31.3539 31.1644 31.3727 31.2208C31.3729 31.2215 31.3732 31.2222 31.3734 31.223C31.3265 31.2277 31.2637 31.2324 31.1859 31.2369C30.9907 31.2484 30.7072 31.2589 30.3562 31.2676C29.6545 31.2852 28.6861 31.2961 27.6204 31.2961H23.843V30.0225V28.7227L24.3605 28.5645C24.7833 28.4353 25.1449 28.2288 25.4026 27.9806C25.6594 27.7332 25.8197 27.4373 25.8197 27.1317C25.8197 27.0166 25.8208 26.9484 25.8323 26.9028C25.8373 26.8827 25.8431 26.8734 25.8471 26.8687C25.8506 26.8646 25.857 26.8589 25.8728 26.8533C25.9105 26.8399 25.9798 26.8342 26.1115 26.8426C26.2397 26.8508 26.4114 26.8709 26.6452 26.8986C27.1491 26.9585 27.9222 27.1936 28.3546 27.4183ZM21.2102 27.0902C21.2102 27.3834 21.3878 27.6939 21.6435 27.9528C21.9019 28.2143 22.2538 28.4376 22.6319 28.5531L23.1869 28.7227V30.0225V31.2962L20.9679 31.2987C19.6914 31.3001 17.9448 31.342 17.0849 31.3919C16.5278 31.4241 16.1437 31.4323 15.9003 31.4156C15.7774 31.4071 15.6987 31.3928 15.6535 31.3762C15.644 31.3727 15.6373 31.3697 15.6327 31.3673C15.638 31.2797 15.6809 31.1255 15.7598 30.9213C15.8422 30.708 15.9582 30.4542 16.0914 30.1926C16.3586 29.6676 16.6896 29.1218 16.9491 28.8153C17.9462 27.6379 19.425 26.8759 20.742 26.8489C20.86 26.8465 20.9498 26.8484 21.0189 26.8561C21.0887 26.864 21.1287 26.877 21.1524 26.8912C21.1854 26.911 21.2102 26.9461 21.2102 27.0902ZM15.6238 31.3615C15.6239 31.3615 15.6247 31.362 15.6257 31.3632C15.6242 31.3621 15.6237 31.3615 15.6238 31.3615Z" fill="#6A6E72" stroke="#6A6E72" stroke-width="0.2"/>
</svg>
