<svg width="20" height="20" viewBox="0 0 20 20" fill="none" xmlns="http://www.w3.org/2000/svg">
<path fill-rule="evenodd" clip-rule="evenodd" d="M1.85129 0.0852873C0.97982 0.365892 0.297713 1.06955 0.0697092 1.92312C0.0140218 2.13165 0.000679522 3.37206 0.000215889 8.39989C-0.000453802 15.1955 -0.0125597 14.9067 0.297044 15.4878C0.51696 15.9005 1.01119 16.3662 1.45066 16.5748C1.65837 16.6734 1.95324 16.7776 2.10583 16.8064C2.27578 16.8385 3.68846 16.8588 5.74972 16.8588H9.11606L9.27776 16.7141C9.50432 16.5114 9.51437 16.2079 9.30197 15.9859L9.15325 15.8304L5.69687 15.8158L2.24049 15.8012L1.97781 15.6821C1.66986 15.5425 1.34511 15.2251 1.17588 14.8983L1.05565 14.6662V8.39783V2.12949L1.17187 1.91167C1.34511 1.58695 1.55751 1.36779 1.86345 1.19806L2.13746 1.04607H7.88135H13.6252L13.8992 1.19806C14.2052 1.36779 14.4176 1.58695 14.5908 1.91167L14.7071 2.12949L14.7211 6.34104L14.7351 10.5525L14.3863 10.6173C13.4082 10.7987 12.6111 11.2328 11.8737 11.9854C9.65289 14.2524 10.2922 18.0834 13.1299 19.5125C13.7896 19.8447 14.2705 19.9648 15.0552 19.9933C15.4955 20.0094 15.8858 19.9961 16.0855 19.9582C18.3947 19.5207 20.0059 17.5973 20 15.2853C19.9969 14.0983 19.6314 13.0969 18.8716 12.193C18.552 11.813 17.8064 11.2073 17.5917 11.1533C17.2751 11.0737 16.9479 11.3126 16.9479 11.6233C16.9479 11.8862 17.0052 11.9674 17.3786 12.2343C18.8404 13.279 19.3679 15.1841 18.6424 16.7993C18.2188 17.7425 17.4674 18.422 16.4462 18.7854C16.0231 18.936 15.9499 18.9461 15.2737 18.9461C14.5975 18.9461 14.5243 18.936 14.1012 18.7854C13.8529 18.6971 13.5183 18.5466 13.3576 18.4512C12.9634 18.217 12.3296 17.5737 12.0913 17.1659C11.4724 16.1065 11.427 14.7455 11.9736 13.6343C12.5467 12.4693 13.8654 11.5965 15.0527 11.5965C15.2231 11.5965 15.4223 11.5622 15.5072 11.5182C15.828 11.3521 15.8148 11.5521 15.813 6.89136C15.8121 4.54535 15.7897 2.47799 15.7629 2.27131C15.6453 1.36465 15.1284 0.656609 14.2731 0.230465L13.8391 0.0142461L7.9883 0.00366984C2.49502 -0.00623568 2.12 -0.00128288 1.85129 0.0852873ZM3.31055 3.31753C3.14509 3.48324 3.13144 3.51905 3.15797 3.71726C3.17764 3.86419 3.23101 3.97279 3.32199 4.05116L3.45685 4.16734H7.8882H12.3195L12.4701 4.01654C12.7122 3.77406 12.6353 3.33244 12.3265 3.19149C12.2413 3.15265 10.8701 3.13552 7.84802 3.13552H3.4923L3.31055 3.31753ZM3.51723 6.31818C3.45443 6.33067 3.34435 6.41079 3.27253 6.49627C3.09125 6.71203 3.09836 6.9543 3.29232 7.17171L3.44264 7.34021H7.88135H12.3201L12.4704 7.17171C12.6735 6.94404 12.6735 6.70455 12.4704 6.47688L12.3201 6.30838L7.97573 6.30193C5.58637 6.29842 3.58003 6.3057 3.51723 6.31818ZM3.40524 9.55326C3.05998 9.74487 3.07132 10.2906 3.42388 10.4514C3.61274 10.5376 11.8348 10.5404 12.0234 10.4543C12.1938 10.3766 12.3285 10.0882 12.2857 9.89294C12.2674 9.80993 12.1829 9.68332 12.0978 9.61161L11.9431 9.48124L7.73572 9.48305C4.34234 9.48454 3.50456 9.49811 3.40524 9.55326ZM3.47107 12.6782C3.13592 12.8158 3.04541 13.2406 3.29226 13.5174L3.44258 13.6859L6.39603 13.6997C9.13259 13.7123 9.36276 13.7066 9.52977 13.6223C9.86601 13.4523 9.92715 13.0358 9.65372 12.7784L9.52158 12.6541L6.55072 12.6438C4.91673 12.6382 3.53093 12.6537 3.47107 12.6782ZM15.002 12.7317C14.9092 12.7883 14.8106 12.8943 14.783 12.9671C14.7554 13.0398 14.7328 13.4693 14.7328 13.9214V14.7436H14.216C13.4476 14.7436 13.2389 14.862 13.2389 15.298C13.2389 15.454 13.2737 15.5316 13.3969 15.6496L13.5549 15.8012H14.4709C15.1278 15.8012 15.4226 15.782 15.5131 15.7336C15.7652 15.5984 15.7834 15.5128 15.8052 14.3566C15.8289 13.0989 15.794 12.8835 15.5415 12.7293C15.333 12.602 15.2135 12.6025 15.002 12.7317Z" fill="black"/>
</svg>
