<svg width="21" height="23" viewBox="0 0 21 23" fill="none" xmlns="http://www.w3.org/2000/svg">
<path d="M7.65722 20.7127V17.5734C7.6572 16.7749 8.29312 16.1261 9.08101 16.1207H11.9671C12.7587 16.1207 13.4005 16.7711 13.4005 17.5734V20.7224C13.4003 21.4004 13.9343 21.9545 14.603 21.9704H16.5271C18.4451 21.9704 20 20.3946 20 18.4508V9.52035C19.9898 8.75566 19.6355 8.03758 19.038 7.57047L12.4577 2.19853C11.3049 1.26317 9.6662 1.26317 8.51342 2.19853L1.96203 7.58021C1.36226 8.04544 1.00739 8.76471 1 9.5301V18.4508C1 20.3946 2.55488 21.9704 4.47291 21.9704H6.39696C7.08235 21.9704 7.63797 21.4073 7.63797 20.7127" stroke="black" stroke-width="2" stroke-linecap="round" stroke-linejoin="round"/>
</svg>
