<svg width="20" height="23" viewBox="0 0 20 23" fill="none" xmlns="http://www.w3.org/2000/svg">
<path d="M18.7998 18.6204C16.5439 20.7029 13.5562 21.9706 10.2794 21.9706C6.80169 21.9706 3.6498 20.5428 1.3526 18.2286" stroke="#3A3A47" stroke-width="1.6" stroke-linecap="round"/>
<path d="M18.237 17.9524C17.9997 17.6507 17.7458 17.361 17.4758 17.0846C15.4868 15.0485 12.7891 13.9046 9.97616 13.9046C7.16326 13.9046 4.46556 15.0485 2.47654 17.0846C2.11947 17.4501 1.79049 17.839 1.49103 18.2477" stroke="#3A3A47" stroke-width="1.6" stroke-linecap="round" stroke-linejoin="round"/>
<path d="M10.2788 12.6643C11.7254 12.6643 13.1128 12.076 14.1357 11.0289C15.1586 9.98176 15.7333 8.56154 15.7333 7.08066C15.7333 5.59978 15.1586 4.17956 14.1357 3.13242C13.1128 2.08528 11.7254 1.49701 10.2788 1.49701C8.83213 1.49701 7.44475 2.08528 6.42182 3.13242C5.39889 4.17956 4.82422 5.59978 4.82422 7.08066C4.82422 8.56154 5.39889 9.98176 6.42182 11.0289C7.44475 12.076 8.83213 12.6643 10.2788 12.6643V12.6643Z" stroke="#3A3A47" stroke-width="1.6" stroke-linecap="round" stroke-linejoin="round"/>
</svg>
