<svg width="21" height="21" viewBox="0 0 21 21" fill="none" xmlns="http://www.w3.org/2000/svg">
<path d="M2.75254 19.9467L2.05254 20.6633C1.65254 21.0727 1.05254 21.0727 0.652538 20.6633C0.252538 20.2538 0.252538 19.6396 0.652538 19.2301L11.1525 8.48162C10.6525 7.66269 10.3525 6.63902 10.3525 5.61535C10.3525 2.74908 12.5525 0.49701 15.3525 0.49701C18.1525 0.49701 20.3525 2.74908 20.3525 5.61535C20.3525 8.48162 18.1525 10.7337 15.3525 10.7337C14.3525 10.7337 13.3525 10.4266 12.5525 9.91476L6.95254 15.6473L9.05254 17.797C9.45254 18.2065 9.45254 18.8207 9.05254 19.2301C8.65254 19.6396 8.05254 19.6396 7.65254 19.2301L5.55254 17.0804L4.15254 18.5136L4.85254 19.2301C5.25254 19.6396 5.25254 20.2538 4.85254 20.6633C4.45254 21.0727 3.85254 21.0727 3.45254 20.6633L2.75254 19.9467ZM18.3525 5.61535C18.3525 3.87511 17.0525 2.54435 15.3525 2.54435C13.6525 2.54435 12.3525 3.87511 12.3525 5.61535C12.3525 7.35559 13.6525 8.68635 15.3525 8.68635C17.0525 8.68635 18.3525 7.35559 18.3525 5.61535Z" fill="#3A3A47"/>
</svg>
