<svg width="46" height="46" viewBox="0 0 46 46" fill="none" xmlns="http://www.w3.org/2000/svg">
<rect width="46" height="46" rx="9" fill="#F7F7F7"/>
<path fill-rule="evenodd" clip-rule="evenodd" d="M15.6396 14.1533C15.3727 14.232 15.0018 14.4319 14.8156 14.5977C14.0218 15.304 14.0022 15.4709 14.0029 21.5271C14.0038 29.274 13.6968 28.8388 19.1588 28.8388H22.6343L23.0875 30.177C23.3369 30.913 23.66 31.6323 23.8057 31.7755C24.0309 31.9971 24.5444 32.0278 27.2374 31.9815C30.7379 31.9214 31.0141 31.8471 31.6691 30.7913C31.9801 30.2897 32 29.9132 32 24.4986C32 19.0897 31.9798 18.707 31.6701 18.2075C31.1028 17.2927 30.8803 17.2441 26.8453 17.1535L23.1326 17.07L22.6151 15.6511C22.3305 14.8706 22.0145 14.1769 21.9129 14.1094C21.6572 13.9397 16.2363 13.9776 15.6396 14.1533ZM21.4735 14.8593C21.4735 14.8828 22.505 17.8294 23.7658 21.4071C25.0266 24.985 26.0581 27.9329 26.0581 27.9583C26.0581 27.9835 23.695 28.0042 20.8067 28.0042H15.5551L15.2032 27.5643C14.8624 27.1386 14.8514 26.9423 14.8567 21.4295C14.8623 15.4788 14.8669 15.4401 15.6153 15.0181C15.9011 14.857 21.4735 14.7059 21.4735 14.8593ZM30.8002 18.428C31.141 18.8537 31.152 19.05 31.1467 24.5628C31.1428 28.7762 31.0875 30.3267 30.9345 30.5227C30.4966 31.0836 29.9989 31.1759 27.416 31.1759H24.8461L25.9615 29.9186C26.575 29.227 27.0769 28.5926 27.0769 28.5088C27.0769 28.425 26.2746 26.0802 25.294 23.2983C24.3134 20.5165 23.5111 18.1836 23.5111 18.1143C23.5111 18.0449 25.0719 17.9881 26.9796 17.9881H30.4484L30.8002 18.428ZM18.8757 18.7614C18.8103 18.8258 18.7567 19.0881 18.7567 19.3445C18.7567 19.8101 18.756 19.8104 17.4407 19.8591C16.2545 19.903 16.1247 19.9408 16.1247 20.2417C16.1247 20.511 16.2562 20.5861 16.804 20.6295C17.4305 20.6794 17.4831 20.6293 18 21.5C18.6378 22.5744 18.668 22.7316 17.2709 23.3566C16.4976 23.7026 16.4117 23.8447 16.7892 24.1525C17.0627 24.3759 17.9029 24.0946 18.7645 23.4914L19.2622 23.1431L19.8167 23.559C20.5099 24.0787 21.2225 24.3518 21.5569 24.2256C22.0274 24.0482 21.8207 23.6554 21.0914 23.3407C20.6946 23.1694 20.2285 22.9235 20.0558 22.7942C19.7536 22.568 19.7582 22.5352 20.1757 21.9303C20.4144 21.5846 20.655 21.1612 20.7106 20.9894C20.7838 20.7624 21.0054 20.6636 21.5244 20.6265C22.1157 20.5843 22.2469 20.5113 22.2919 20.2C22.3442 19.8373 22.2994 19.8244 20.9867 19.8244H19.6272L19.5739 19.2832C19.5233 18.7672 19.1521 18.4898 18.8757 18.7614ZM19.6637 21.1856C19.279 21.8333 19.1875 21.9308 18.7645 21.2741L18.3838 20.6591H19.1802H19.9765L19.6637 21.1856ZM27.4829 23.6999C27.0111 24.8291 26.6565 25.8462 26.6952 25.9604C26.8292 26.3555 27.2535 26.1654 27.5356 25.5836C27.8018 25.0349 27.8691 24.9994 28.6393 24.9994C29.4097 24.9994 29.4769 25.0349 29.743 25.5836C30.0345 26.1846 30.4144 26.3455 30.5743 25.9357C30.6241 25.808 30.2911 24.8126 29.8342 23.7238C28.7028 21.0277 28.6002 21.0267 27.4829 23.6999ZM28.7456 24.1365C28.2752 24.2129 28.2263 24.1174 28.4515 23.5619L28.6468 23.0796L28.8658 23.5804C29.066 24.0381 29.0556 24.0859 28.7456 24.1365ZM25.5997 29.0635C25.525 29.1871 25.1818 29.6086 24.8373 30L24.2105 30.712L23.966 30.1364C23.3894 28.7797 23.3598 28.8388 24.6118 28.8388C25.5075 28.8388 25.7078 28.8844 25.5997 29.0635Z" fill="#6A6E72"/>
</svg>
