<svg width="25" height="25" viewBox="0 0 25 25" fill="none" xmlns="http://www.w3.org/2000/svg">
<circle opacity="0.3" cx="12.2449" cy="12.2449" r="12.2449" fill="white"/>
<circle opacity="0.3" cx="12.2457" cy="12.2456" r="9.79592" fill="white"/>
<path d="M16.5301 11.7762C16.5316 12.4566 16.2775 13.1111 15.8212 13.6024C14.7751 14.7215 13.7602 15.8885 12.6755 16.9665C12.4265 17.2097 12.0318 17.2009 11.7939 16.9466L8.66744 13.6028C7.72243 12.592 7.72243 10.9603 8.66744 9.94994C8.89079 9.70807 9.15942 9.51551 9.45704 9.38394C9.75467 9.25237 10.0751 9.18452 10.3989 9.18452C10.7227 9.18452 11.0431 9.25237 11.3407 9.38394C11.6384 9.51551 11.907 9.70807 12.1303 9.94994L12.2443 10.0711L12.3579 9.94994C12.5817 9.70864 12.8504 9.51643 13.1479 9.38483C13.4455 9.25324 13.7657 9.18495 14.0894 9.18408C14.7408 9.18408 15.3635 9.46 15.8208 9.94994C16.2772 10.4411 16.5315 11.0957 16.5301 11.7762Z" fill="#EF0C0C"/>
</svg>
