<svg width="10" height="15" viewBox="0 0 10 15" fill="none" xmlns="http://www.w3.org/2000/svg">
<path d="M5 7.08872C4.5264 7.08872 4.0722 6.89218 3.73731 6.54234C3.40242 6.1925 3.21429 5.71801 3.21429 5.22326C3.21429 4.72852 3.40242 4.25403 3.73731 3.90419C4.0722 3.55435 4.5264 3.35781 5 3.35781C5.4736 3.35781 5.9278 3.55435 6.26269 3.90419C6.59758 4.25403 6.78571 4.72852 6.78571 5.22326C6.78571 5.46824 6.73953 5.71081 6.64979 5.93714C6.56004 6.16347 6.42851 6.36911 6.26269 6.54234C6.09687 6.71556 5.90002 6.85297 5.68336 6.94672C5.46671 7.04046 5.2345 7.08872 5 7.08872ZM5 0C3.67392 0 2.40215 0.550307 1.46447 1.52986C0.526784 2.50941 0 3.83797 0 5.22326C0 9.14071 5 14.9236 5 14.9236C5 14.9236 10 9.14071 10 5.22326C10 3.83797 9.47322 2.50941 8.53553 1.52986C7.59785 0.550307 6.32608 0 5 0Z" fill="#E97400"/>
</svg>
