<svg width="46" height="46" viewBox="0 0 46 46" fill="none" xmlns="http://www.w3.org/2000/svg">
<rect width="46" height="46" rx="9" fill="#F7F7F7"/>
<path d="M23.9 22.9995H32M32 22.9995L29.0003 19.3741M32 22.9995L29.0003 26.625M24.8 18.4677V16.8127C24.8 16.5619 24.7483 16.3139 24.6483 16.0843C24.5482 15.8547 24.402 15.6485 24.2188 15.4788C24.0356 15.309 23.8194 15.1794 23.5839 15.098C23.3484 15.0167 23.0987 14.9854 22.8506 15.0063L15.6506 15.6099C15.2006 15.6476 14.7812 15.8543 14.4755 16.1889C14.1697 16.5235 14 16.9616 14 17.4163V28.5828C14 29.0375 14.1697 29.4756 14.4755 29.8102C14.7812 30.1448 15.2006 30.3515 15.6506 30.3892L22.8506 30.9937C23.0988 31.0146 23.3485 30.9833 23.5841 30.9019C23.8197 30.8205 24.0359 30.6908 24.2191 30.5209C24.4023 30.3511 24.5486 30.1447 24.6486 29.915C24.7485 29.6853 24.8001 29.4372 24.8 29.1864V27.5314" stroke="#6B6F73" stroke-width="1.5" stroke-linecap="round" stroke-linejoin="round"/>
</svg>
