<svg width="46" height="46" viewBox="0 0 46 46" fill="none" xmlns="http://www.w3.org/2000/svg">
<rect width="46" height="46" rx="9" fill="#F7F7F7"/>
<path fill-rule="evenodd" clip-rule="evenodd" d="M21.4335 13.3042C19.6426 13.9974 18.3099 15.3585 17.6478 17.1706C17.4641 17.6732 17.2583 18.8651 17.1642 19.9712C16.9433 22.5699 16.3908 24.3558 15.3162 25.9442C14.9133 26.5398 14.8925 27.5393 15.2705 28.1411C15.5837 28.6397 16.6889 29.1294 18.2069 29.4419C19.6926 29.7479 19.7191 29.7629 19.9251 30.4136C20.1825 31.2273 21.1483 32.317 21.9495 32.6976C22.7514 33.0786 24.1153 33.1031 24.9243 32.7511C25.7804 32.3787 26.5671 31.5424 26.9961 30.5486L27.3645 29.6951L28.5077 29.4906C31.8912 28.8855 32.7228 27.7318 31.4055 25.4713C30.3271 23.6208 30.1112 22.7956 29.7044 18.9705C29.4413 16.4961 28.18 14.5813 26.142 13.5619C24.8804 12.931 22.7053 12.8118 21.4335 13.3042ZM25.5586 14.8849C26.5452 15.3687 27.5067 16.3735 27.9236 17.3564C28.134 17.8528 28.3012 18.7714 28.3916 19.9278C28.5811 22.3528 28.8708 23.4459 29.8721 25.5151C30.5715 26.9602 30.6786 27.2932 30.484 27.4195C30.0575 27.6965 27.4782 28.257 25.7558 28.4469C23.8569 28.6564 21.1564 28.5374 19.1833 28.1574C17.7285 27.8773 16.337 27.4451 16.3331 27.2722C16.3316 27.2096 16.6985 26.3947 17.1483 25.4611C18.1205 23.4431 18.411 22.3358 18.5991 19.9278C18.6894 18.7714 18.8567 17.8528 19.0671 17.3564C19.6332 16.0217 20.959 14.8946 22.4377 14.4915C23.2072 14.2817 24.7164 14.472 25.5586 14.8849ZM25.7734 30.038C25.7734 30.0815 25.5501 30.3824 25.2771 30.7066C24.6938 31.3998 23.8574 31.7332 23.0827 31.5816C22.4985 31.4673 21.6478 30.8207 21.3705 30.2802C21.2125 29.9723 21.2996 29.9591 23.4896 29.9591C24.7457 29.9591 25.7734 29.9946 25.7734 30.038Z" fill="#6A6E72"/>
</svg>
