<svg width="24" height="24" viewBox="0 0 24 24" fill="none" xmlns="http://www.w3.org/2000/svg">
<circle opacity="0.3" cx="12" cy="12" r="12" fill="white"/>
<circle opacity="0.3" cx="12" cy="12" r="9.6" fill="white"/>
<path d="M16.2 11.5402C16.2014 12.207 15.9524 12.8485 15.5053 13.3299C14.4801 14.4267 13.4855 15.5703 12.4225 16.6268C12.1784 16.8651 11.7916 16.8565 11.5585 16.6073L8.49457 13.3304C7.56846 12.3398 7.56846 10.7407 8.49457 9.75054C8.71345 9.51351 8.97671 9.3248 9.26838 9.19586C9.56006 9.06692 9.87407 9.00043 10.1914 9.00043C10.5087 9.00043 10.8227 9.06692 11.1144 9.19586C11.4061 9.3248 11.6693 9.51351 11.8882 9.75054L11.9999 9.86928L12.1112 9.75054C12.3306 9.51407 12.5939 9.3257 12.8855 9.19674C13.177 9.06777 13.4908 9.00086 13.8081 9C14.4465 9 15.0567 9.2704 15.5049 9.75054C15.9522 10.2319 16.2013 10.8734 16.2 11.5402Z" fill="white"/>
</svg>
