<svg width="22" height="21" viewBox="0 0 22 21" fill="none" xmlns="http://www.w3.org/2000/svg">
<path fill-rule="evenodd" clip-rule="evenodd" d="M12.0447 0.0302921C7.65052 1.1038 5.61581 5.78722 7.85922 9.66484C8.58268 10.9153 10.2307 12.137 11.72 12.5271C12.5465 12.7434 13.9608 12.7438 14.8025 12.5278C15.9769 12.2264 16.8224 11.7326 17.7203 10.8236C19.0533 9.47419 19.6224 8.10762 19.618 6.26662C19.6117 3.58806 17.9131 1.20964 15.3412 0.278297C14.8576 0.103144 14.3732 0.0331707 13.4765 0.00903449C12.8101 -0.00890158 12.1659 0.000730745 12.0447 0.0302921ZM14.8901 1.04313C17.3793 1.71363 19.132 4.4987 18.7243 7.13563C18.1068 11.1282 13.6483 13.1387 10.2738 10.9462C7.00249 8.82063 6.9754 3.83318 10.2238 1.73776C11.674 0.802208 13.1693 0.579667 14.8901 1.04313ZM13.1185 3.58064C13.0429 3.61109 12.9809 3.73088 12.9809 3.8468C12.9809 3.97014 12.8088 4.16677 12.5662 4.32067C12.0241 4.66477 11.8814 4.84867 11.8091 5.29608C11.7258 5.8129 12.0694 6.21237 12.9694 6.64483C13.7733 7.03112 13.9109 7.27193 13.4872 7.55104C13.2498 7.70738 13.1246 7.7159 12.6288 7.60895C12.113 7.49779 12.0323 7.50565 11.9056 7.67981C11.6691 8.00498 11.7964 8.20372 12.3477 8.37012C12.7051 8.47807 12.8707 8.58768 12.8707 8.71645C12.8707 8.96511 13.1306 9.17359 13.34 9.09277C13.4317 9.05745 13.5356 8.88352 13.5708 8.70637C13.6157 8.48117 13.719 8.36304 13.914 8.31388C14.3475 8.20449 14.743 7.65722 14.743 7.16686C14.743 6.58726 14.4193 6.21946 13.5674 5.83117C12.9608 5.5546 12.8598 5.46858 12.8902 5.25379C12.923 5.02117 12.9809 5.00146 13.6294 5.00146C14.1571 5.00146 14.3612 4.95673 14.4454 4.82277C14.6151 4.55273 14.4574 4.28524 14.0842 4.21028C13.8763 4.16843 13.6988 4.03668 13.6135 3.86086C13.4683 3.5616 13.3426 3.49052 13.1185 3.58064ZM5.657 12.8601C4.86459 13.008 3.96766 13.3209 3.28913 13.6862L2.90367 13.8937L2.61291 13.5441C2.33351 13.2082 2.28934 13.1945 1.48647 13.1945C0.720275 13.1945 0.625561 13.22 0.345602 13.5013L0.040203 13.8081L0.00771373 16.9261C-0.0155244 19.1467 0.0127799 20.1354 0.105732 20.3612C0.285029 20.7963 0.733822 21 1.51312 21C2.05388 21 2.2291 20.9508 2.49771 20.7235C2.67745 20.5715 2.85355 20.3307 2.88913 20.1887C2.93693 19.9968 3.17448 19.8286 3.80973 19.5367C4.28055 19.3203 4.76359 19.1098 4.88309 19.0691C5.36074 18.9064 7.02925 19.0101 8.46539 19.2918C10.1749 19.6271 12.5247 19.7644 13.3843 19.5791C14.0165 19.4427 21.4941 15.375 21.8301 14.9848C22.1392 14.6255 22.013 13.9466 21.5618 13.5413C21.221 13.2352 21.1763 13.2257 20.3161 13.276C19.3088 13.3349 18.4717 13.5928 16.956 14.3112C16.3862 14.5812 15.9128 14.7892 15.9039 14.7734C15.416 13.9013 15.2396 13.8364 13.2011 13.7812C11.5843 13.7373 11.4329 13.7136 10.3377 13.333C8.56451 12.7167 7.17661 12.5765 5.657 12.8601ZM9.18126 13.8547C9.5447 13.9512 10.1415 14.1493 10.5076 14.2947C11.0705 14.5184 11.4529 14.5714 12.9856 14.6381C14.7961 14.7169 15.1135 14.7874 15 15.0847C14.9505 15.2144 14.5402 15.2427 12.7148 15.2427C10.302 15.2427 10.0631 15.2946 10.1345 15.8025L10.1725 16.0731L12.6627 16.1028L15.153 16.1326L16.6275 15.4109C19.0622 14.2193 20.7463 13.785 21.0569 14.2687C21.1235 14.3723 21.1549 14.4767 21.1269 14.5007C20.9797 14.6262 13.9277 18.4834 13.573 18.6324C12.8648 18.9299 10.8378 18.8576 8.68984 18.4584C6.05326 17.9683 4.91844 18.0132 3.592 18.6603L2.95873 18.9692V16.9414V14.9134L3.41325 14.6249C3.9898 14.259 5.12043 13.8294 5.85766 13.6963C6.62947 13.5569 8.37233 13.6399 9.18126 13.8547ZM2.05201 17.0006C2.07271 19.0625 2.04452 19.9657 1.95586 20.073C1.8259 20.2304 1.3444 20.275 1.04043 20.1578C0.887568 20.0988 0.866202 19.7276 0.866202 17.1316C0.866202 15.504 0.901555 14.137 0.944727 14.0936C0.987899 14.0502 1.24803 14.0294 1.52293 14.0474L2.0226 14.0802L2.05201 17.0006Z" fill="black"/>
</svg>
