<svg width="46" height="46" viewBox="0 0 46 46" fill="none" xmlns="http://www.w3.org/2000/svg">
<rect width="46" height="46" rx="9" fill="#F7F7F7"/>
<path fill-rule="evenodd" clip-rule="evenodd" d="M19.0107 14.1678C18.4608 14.3271 17.7353 14.9924 17.5327 15.5231C17.4573 15.7207 17.3956 17.0225 17.3956 18.4161C17.3956 21.2969 17.5509 21.0098 15.8754 21.2282C14.2992 21.4335 13.8768 22.1807 14.029 24.4945C14.1469 26.2895 14.5713 27.5942 15.4693 28.9235C16.2435 30.0697 17.3434 30.9989 18.6393 31.6015L19.4931 31.9983L24.7037 31.9999C29.7999 32.0014 29.9296 31.9938 30.6076 31.6523C31.1141 31.3971 31.395 31.1166 31.6504 30.6107C31.9952 29.928 32 29.8338 32 23.867V17.8157L30.0899 15.9078L28.1799 14L23.8365 14.014C21.4476 14.0217 19.276 14.0909 19.0107 14.1678ZM27.339 16.8399C27.339 17.7555 27.4072 18.3512 27.5255 18.4693C27.6437 18.5874 28.2402 18.6555 29.1568 18.6555H30.6017V24.3198C30.6017 29.7772 30.5904 29.9954 30.291 30.2944C29.9975 30.5875 29.7731 30.6048 26.237 30.6048H22.494L23.1763 29.8467C24.6815 28.1744 25.3827 26.1266 25.2935 23.6635C25.2258 21.7938 24.9832 21.5077 23.2046 21.1987C22.4759 21.0721 21.5377 20.7642 20.8566 20.4281C19.8515 19.9319 19.6665 19.8874 19.2349 20.0378C18.9669 20.131 18.7231 20.2074 18.6931 20.2074C18.6631 20.2074 18.6386 19.309 18.6386 18.2109C18.6386 16.4262 18.6727 16.171 18.9606 15.8056L19.2826 15.3967H23.3109H27.339V16.8399ZM29.2034 16.8709L29.7304 17.4141H29.1562C28.6036 17.4141 28.582 17.3937 28.582 16.8709C28.582 16.5722 28.6032 16.3278 28.6292 16.3278C28.6551 16.3278 28.9135 16.5722 29.2034 16.8709ZM20.3669 21.6643C21.2277 22.1335 22.0456 22.3933 23.0513 22.517L23.8433 22.6143V24.3982C23.8433 26.0841 23.816 26.2397 23.3447 27.2332C22.753 28.4812 21.5358 29.761 20.4382 30.2896L19.6744 30.6575L18.8248 30.2132C17.2038 29.3655 15.9167 27.6569 15.525 25.8327C15.4352 25.4146 15.3824 24.5192 15.4077 23.8427L15.4536 22.6128L16.2304 22.5155C17.3458 22.3758 18.1604 22.1231 18.8716 21.6961C19.2134 21.4909 19.5367 21.3163 19.59 21.3083C19.6433 21.3002 19.9929 21.4605 20.3669 21.6643Z" fill="#6A6E72"/>
</svg>
