<svg width="21" height="21" viewBox="0 0 21 21" fill="none" xmlns="http://www.w3.org/2000/svg">
<path fill-rule="evenodd" clip-rule="evenodd" d="M7.90108 0.14558C5.52655 0.784996 4.05744 3.24674 4.66253 5.5727C5.28905 7.98118 7.74403 9.46687 10.0875 8.85568C12.4859 8.23014 13.9765 5.7698 13.3699 3.43803C12.7377 1.00761 10.2537 -0.48793 7.90108 0.14558ZM10.2861 1.78252C10.8696 2.06542 11.4383 2.6363 11.7302 3.23239C12.0599 3.90556 12.0599 5.091 11.7302 5.76418C11.4374 6.36196 10.8757 6.92439 10.2787 7.21752C9.60638 7.54759 8.42244 7.54759 7.75012 7.21752C5.31574 6.02242 5.51869 2.57966 8.07836 1.64834C8.67324 1.43191 9.69029 1.49371 10.2861 1.78252ZM5.59614 10.6006C4.26994 10.825 3.06736 11.4678 2.02914 12.5074C1.18179 13.3558 0.688244 14.1557 0.327124 15.2662C0.129894 15.8729 0.0860656 16.2219 0.0466384 17.5012L0 19.0172L0.241808 19.2594L0.483616 19.5015H4.80197C7.3874 19.5015 9.18794 19.4653 9.28871 19.4113C9.38124 19.3617 9.51001 19.1929 9.57482 19.0362C9.71277 18.7027 9.57388 18.2442 9.28871 18.0914C9.18888 18.0378 7.57433 18.0011 5.32136 18.0011H1.5223L1.52371 17.3213C1.52773 15.3462 2.60735 13.5202 4.29466 12.6346C5.32586 12.0934 5.87053 12.0029 8.10552 12.0013C10.0476 11.9999 10.0538 11.9992 10.2829 11.7697C10.4279 11.6246 10.5128 11.4324 10.5128 11.2497C10.5128 11.0671 10.4279 10.8748 10.2829 10.7298L10.0531 10.4996L8.0587 10.5105C6.96185 10.5165 5.85368 10.5571 5.59614 10.6006ZM15.238 10.7298C15.0446 10.9233 15.0081 11.0499 15.0081 11.5268C15.0081 11.8842 14.9691 12.0936 14.9027 12.0936C14.8448 12.0936 14.55 12.2048 14.2478 12.3406L13.6982 12.5875L13.2783 12.2C12.7721 11.7328 12.4362 11.6937 12.0708 12.0595C11.7055 12.4254 11.7445 12.7617 12.2111 13.2685L12.5982 13.689L12.3516 14.2393C12.2159 14.5419 12.1049 14.837 12.1049 14.895C12.1049 14.9615 11.8957 15.0005 11.5388 15.0005C11.0625 15.0005 10.936 15.0371 10.7427 15.2307C10.4386 15.5352 10.4386 15.9662 10.7427 16.2706C10.936 16.4643 11.0625 16.5008 11.5388 16.5008C11.8957 16.5008 12.1049 16.5398 12.1049 16.6063C12.1049 16.6644 12.2159 16.9595 12.3516 17.2621L12.5982 17.8124L12.2111 18.2329C11.7479 18.7359 11.7005 19.1051 12.0539 19.4588C12.4071 19.8126 12.7758 19.7651 13.2783 19.3014L13.6982 18.9138L14.2478 19.1607C14.55 19.2966 14.8448 19.4077 14.9027 19.4077C14.9691 19.4077 15.0081 19.6172 15.0081 19.9745C15.0081 20.4514 15.0446 20.578 15.238 20.7716C15.5421 21.0761 15.9725 21.0761 16.2766 20.7716C16.47 20.578 16.5065 20.4514 16.5065 19.9745C16.5065 19.6172 16.5455 19.4077 16.6119 19.4077C16.6698 19.4077 16.9646 19.2966 17.2668 19.1607L17.8164 18.9138L18.2363 19.3014C18.7388 19.7651 19.1075 19.8126 19.4607 19.4588C19.8141 19.1051 19.7667 18.7359 19.3035 18.2329L18.9164 17.8124L19.163 17.2621C19.2987 16.9595 19.4097 16.6644 19.4097 16.6063C19.4097 16.5398 19.6189 16.5008 19.9758 16.5008C20.4521 16.5008 20.5786 16.4643 20.7719 16.2706C21.076 15.9662 21.076 15.5352 20.7719 15.2307C20.5786 15.0371 20.4521 15.0005 19.9758 15.0005C19.6189 15.0005 19.4097 14.9615 19.4097 14.895C19.4097 14.837 19.2987 14.5419 19.163 14.2393L18.9164 13.689L19.3035 13.2685C19.5165 13.0373 19.6907 12.7647 19.6907 12.6627C19.6907 12.1949 19.3086 11.8123 18.8413 11.8123C18.7395 11.8123 18.4673 11.9867 18.2363 12.2L17.8164 12.5875L17.2668 12.3406C16.9646 12.2048 16.6698 12.0936 16.6119 12.0936C16.5455 12.0936 16.5065 11.8842 16.5065 11.5268C16.5065 11.0499 16.47 10.9233 16.2766 10.7298C16.1317 10.5846 15.9397 10.4996 15.7573 10.4996C15.5749 10.4996 15.3829 10.5846 15.238 10.7298ZM16.5181 13.6447C17.344 13.936 18.0049 14.8721 18.0049 15.7507C18.0049 16.931 16.9361 18.0011 15.7573 18.0011C14.5785 18.0011 13.5097 16.931 13.5097 15.7507C13.5097 15.1888 13.768 14.593 14.1923 14.176C14.8409 13.5386 15.6763 13.3478 16.5181 13.6447Z" fill="black"/>
</svg>
