<svg width="18" height="18" viewBox="0 0 18 18" fill="none" xmlns="http://www.w3.org/2000/svg">
<path d="M7.4571 15.3945C9.11162 15.3941 10.7185 14.8224 12.0218 13.7704L16.1195 18L17.4375 16.6395L13.3398 12.4099C14.3596 11.0645 14.9138 9.40549 14.9142 7.69724C14.9142 3.45318 11.5688 0 7.4571 0C3.34544 0 0 3.45318 0 7.69724C0 11.9413 3.34544 15.3945 7.4571 15.3945ZM7.4571 1.92431C10.5415 1.92431 13.0499 4.51347 13.0499 7.69724C13.0499 10.881 10.5415 13.4702 7.4571 13.4702C4.37266 13.4702 1.86428 10.881 1.86428 7.69724C1.86428 4.51347 4.37266 1.92431 7.4571 1.92431Z" fill="#8F8F8F"/>
</svg>
