<svg width="48" height="8" viewBox="0 0 48 8" fill="none" xmlns="http://www.w3.org/2000/svg">
<path d="M7.80013 3.64407L6.19049 5.10202L6.67267 7.27265C6.69818 7.38612 6.6909 7.50488 6.65174 7.61409C6.61257 7.72329 6.54326 7.81809 6.45246 7.88663C6.36167 7.95517 6.25342 7.99441 6.14125 7.99945C6.02908 8.00448 5.91797 7.97509 5.82181 7.91495L3.99768 6.76666L2.17747 7.91495C2.08131 7.97509 1.9702 8.00448 1.85804 7.99945C1.74587 7.99441 1.63762 7.95517 1.54682 7.88663C1.45603 7.81809 1.38671 7.72329 1.34755 7.61409C1.30838 7.50488 1.3011 7.38612 1.32662 7.27265L1.80808 5.10424L0.198089 3.64407C0.112935 3.56784 0.0513599 3.46722 0.0210852 3.35483C-0.00918958 3.24243 -0.00681617 3.12326 0.0279077 3.01225C0.0626317 2.90125 0.12816 2.80336 0.216276 2.73085C0.304392 2.65835 0.411173 2.61445 0.523228 2.60468L2.64537 2.41392L3.47375 0.363303C3.51701 0.255703 3.58997 0.163793 3.68346 0.0991445C3.77694 0.034496 3.88677 0 3.99911 0C4.11145 0 4.22127 0.034496 4.31476 0.0991445C4.40824 0.163793 4.48121 0.255703 4.52447 0.363303L5.35534 2.41392L7.47677 2.60468C7.58883 2.61445 7.69561 2.65835 7.78372 2.73085C7.87184 2.80336 7.93737 2.90125 7.97209 3.01225C8.00682 3.12326 8.00919 3.24243 7.97891 3.35483C7.94864 3.46722 7.88706 3.56784 7.80191 3.64407H7.80013Z" fill="#FFC700"/>
<path d="M17.8001 3.64407L16.1905 5.10202L16.6727 7.27265C16.6982 7.38612 16.6909 7.50488 16.6517 7.61409C16.6126 7.72329 16.5433 7.81809 16.4525 7.88663C16.3617 7.95517 16.2534 7.99441 16.1412 7.99945C16.0291 8.00448 15.918 7.97509 15.8218 7.91495L13.9977 6.76666L12.1775 7.91495C12.0813 7.97509 11.9702 8.00448 11.858 7.99945C11.7459 7.99441 11.6376 7.95517 11.5468 7.88663C11.456 7.81809 11.3867 7.72329 11.3475 7.61409C11.3084 7.50488 11.3011 7.38612 11.3266 7.27265L11.8081 5.10424L10.1981 3.64407C10.1129 3.56784 10.0514 3.46722 10.0211 3.35483C9.99081 3.24243 9.99318 3.12326 10.0279 3.01225C10.0626 2.90125 10.1282 2.80336 10.2163 2.73085C10.3044 2.65835 10.4112 2.61445 10.5232 2.60468L12.6454 2.41392L13.4737 0.363303C13.517 0.255703 13.59 0.163793 13.6835 0.0991445C13.7769 0.034496 13.8868 0 13.9991 0C14.1114 0 14.2213 0.034496 14.3148 0.0991445C14.4082 0.163793 14.4812 0.255703 14.5245 0.363303L15.3553 2.41392L17.4768 2.60468C17.5888 2.61445 17.6956 2.65835 17.7837 2.73085C17.8718 2.80336 17.9374 2.90125 17.9721 3.01225C18.0068 3.12326 18.0092 3.24243 17.9789 3.35483C17.9486 3.46722 17.8871 3.56784 17.8019 3.64407H17.8001Z" fill="#FFC700"/>
<path d="M27.8001 3.64407L26.1905 5.10202L26.6727 7.27265C26.6982 7.38612 26.6909 7.50488 26.6517 7.61409C26.6126 7.72329 26.5433 7.81809 26.4525 7.88663C26.3617 7.95517 26.2534 7.99441 26.1412 7.99945C26.0291 8.00448 25.918 7.97509 25.8218 7.91495L23.9977 6.76666L22.1775 7.91495C22.0813 7.97509 21.9702 8.00448 21.858 7.99945C21.7459 7.99441 21.6376 7.95517 21.5468 7.88663C21.456 7.81809 21.3867 7.72329 21.3475 7.61409C21.3084 7.50488 21.3011 7.38612 21.3266 7.27265L21.8081 5.10424L20.1981 3.64407C20.1129 3.56784 20.0514 3.46722 20.0211 3.35483C19.9908 3.24243 19.9932 3.12326 20.0279 3.01225C20.0626 2.90125 20.1282 2.80336 20.2163 2.73085C20.3044 2.65835 20.4112 2.61445 20.5232 2.60468L22.6454 2.41392L23.4737 0.363303C23.517 0.255703 23.59 0.163793 23.6835 0.0991445C23.7769 0.034496 23.8868 0 23.9991 0C24.1114 0 24.2213 0.034496 24.3148 0.0991445C24.4082 0.163793 24.4812 0.255703 24.5245 0.363303L25.3553 2.41392L27.4768 2.60468C27.5888 2.61445 27.6956 2.65835 27.7837 2.73085C27.8718 2.80336 27.9374 2.90125 27.9721 3.01225C28.0068 3.12326 28.0092 3.24243 27.9789 3.35483C27.9486 3.46722 27.8871 3.56784 27.8019 3.64407H27.8001Z" fill="#FFC700"/>
<path d="M37.8001 3.64407L36.1905 5.10202L36.6727 7.27265C36.6982 7.38612 36.6909 7.50488 36.6517 7.61409C36.6126 7.72329 36.5433 7.81809 36.4525 7.88663C36.3617 7.95517 36.2534 7.99441 36.1412 7.99945C36.0291 8.00448 35.918 7.97509 35.8218 7.91495L33.9977 6.76666L32.1775 7.91495C32.0813 7.97509 31.9702 8.00448 31.858 7.99945C31.7459 7.99441 31.6376 7.95517 31.5468 7.88663C31.456 7.81809 31.3867 7.72329 31.3475 7.61409C31.3084 7.50488 31.3011 7.38612 31.3266 7.27265L31.8081 5.10424L30.1981 3.64407C30.1129 3.56784 30.0514 3.46722 30.0211 3.35483C29.9908 3.24243 29.9932 3.12326 30.0279 3.01225C30.0626 2.90125 30.1282 2.80336 30.2163 2.73085C30.3044 2.65835 30.4112 2.61445 30.5232 2.60468L32.6454 2.41392L33.4737 0.363303C33.517 0.255703 33.59 0.163793 33.6835 0.0991445C33.7769 0.034496 33.8868 0 33.9991 0C34.1114 0 34.2213 0.034496 34.3148 0.0991445C34.4082 0.163793 34.4812 0.255703 34.5245 0.363303L35.3553 2.41392L37.4768 2.60468C37.5888 2.61445 37.6956 2.65835 37.7837 2.73085C37.8718 2.80336 37.9374 2.90125 37.9721 3.01225C38.0068 3.12326 38.0092 3.24243 37.9789 3.35483C37.9486 3.46722 37.8871 3.56784 37.8019 3.64407H37.8001Z" fill="#FFC700"/>
<path d="M47.8001 3.64407L46.1905 5.10202L46.6727 7.27265C46.6982 7.38612 46.6909 7.50488 46.6517 7.61409C46.6126 7.72329 46.5433 7.81809 46.4525 7.88663C46.3617 7.95517 46.2534 7.99441 46.1412 7.99945C46.0291 8.00448 45.918 7.97509 45.8218 7.91495L43.9977 6.76666L42.1775 7.91495C42.0813 7.97509 41.9702 8.00448 41.858 7.99945C41.7459 7.99441 41.6376 7.95517 41.5468 7.88663C41.456 7.81809 41.3867 7.72329 41.3475 7.61409C41.3084 7.50488 41.3011 7.38612 41.3266 7.27265L41.8081 5.10424L40.1981 3.64407C40.1129 3.56784 40.0514 3.46722 40.0211 3.35483C39.9908 3.24243 39.9932 3.12326 40.0279 3.01225C40.0626 2.90125 40.1282 2.80336 40.2163 2.73085C40.3044 2.65835 40.4112 2.61445 40.5232 2.60468L42.6454 2.41392L43.4737 0.363303C43.517 0.255703 43.59 0.163793 43.6835 0.0991445C43.7769 0.034496 43.8868 0 43.9991 0C44.1114 0 44.2213 0.034496 44.3148 0.0991445C44.4082 0.163793 44.4812 0.255703 44.5245 0.363303L45.3553 2.41392L47.4768 2.60468C47.5888 2.61445 47.6956 2.65835 47.7837 2.73085C47.8718 2.80336 47.9374 2.90125 47.9721 3.01225C48.0068 3.12326 48.0092 3.24243 47.9789 3.35483C47.9486 3.46722 47.8871 3.56784 47.8019 3.64407H47.8001Z" fill="#E3E3E3"/>
</svg>
