<svg width="42" height="42" viewBox="0 0 42 42" fill="none" xmlns="http://www.w3.org/2000/svg">
<circle cx="21" cy="21" r="20.5" fill="white" stroke="#E6E6E6"/>
<path d="M19.7399 15.4793C19.8641 15.4189 20.0029 15.3994 20.1379 15.4233C20.2729 15.4472 20.3978 15.5134 20.4962 15.6132L21.8838 17.1677L17.5772 21.1476C17.9804 21.2316 18.2654 21.3704 18.5112 21.4905C18.8395 21.651 19.0988 21.7778 19.6723 21.7778C20.2459 21.7778 20.5052 21.651 20.8336 21.4905L20.8401 21.4873C21.4743 21.1776 22.0629 20.7742 22.5878 20.2895L23.7292 19.2346L25.9615 21.7351C26.2222 21.6849 26.4071 21.595 26.6208 21.4906C26.8497 21.3719 27.0885 21.2753 27.3342 21.2019L21.4734 14.637L21.4576 14.62C21.1632 14.3129 20.7858 14.1078 20.3766 14.0323C19.9673 13.9568 19.5458 14.0145 19.1689 14.1977L16.4453 15.529L17.0163 16.8108L19.7399 15.4793Z" fill="#E97400"/>
<path d="M26.5556 17.1111C27.4147 17.1111 28.1111 16.4147 28.1111 15.5556C28.1111 14.6964 27.4147 14 26.5556 14C25.6964 14 25 14.6964 25 15.5556C25 16.4147 25.6964 17.1111 26.5556 17.1111Z" fill="#E97400"/>
<path d="M28.9998 25.9584C28.0945 25.9584 27.6006 26.1824 27.2037 26.3624C26.8633 26.5169 26.5944 26.6389 25.9996 26.6389C25.4048 26.6389 25.136 26.5169 24.7956 26.3624C24.3988 26.1824 23.9049 25.9584 22.9996 25.9584C22.0943 25.9584 21.6004 26.1825 21.2036 26.3624C20.8632 26.5169 20.5944 26.6389 19.9997 26.6389C19.405 26.6389 19.1362 26.5169 18.7958 26.3624C18.399 26.1824 17.9051 25.9584 16.9999 25.9584C16.0946 25.9584 15.6007 26.1825 15.2039 26.3624C14.8635 26.5169 14.5946 26.6389 13.9999 26.6389C13.4052 26.6389 13.1364 26.5169 12.796 26.3624C12.3992 26.1825 11.9053 25.9584 11 25.9584V27.3194C11.5947 27.3194 11.8635 27.4414 12.204 27.5959C12.6008 27.7759 13.0947 28 13.9999 28C14.9052 28 15.3991 27.7759 15.7959 27.5959C16.1363 27.4415 16.4052 27.3194 16.9999 27.3194C17.5946 27.3194 17.8634 27.4414 18.2037 27.5959C18.6005 27.7759 19.0944 28 19.9997 28C20.9049 28 21.3988 27.7759 21.7956 27.5959C22.1361 27.4415 22.4049 27.3194 22.9996 27.3194C23.5942 27.3194 23.8632 27.4414 24.2036 27.5959C24.6004 27.7759 25.0943 28 25.9996 28C26.9049 28 27.3989 27.7759 27.7957 27.5959C28.1361 27.4415 28.4051 27.3194 28.9998 27.3194C29.5945 27.3194 29.8635 27.4414 30.2038 27.5959C30.6007 27.776 31.0946 28 32 28V26.6389C31.4052 26.6389 31.1363 26.5169 30.7959 26.3624C30.399 26.1824 29.9051 25.9584 28.9998 25.9584ZM31.8818 23.2343C31.3682 23.2191 31.1129 23.1036 30.796 22.9597C30.4168 22.7877 29.9483 22.5761 29.118 22.5575C29.0791 22.5566 29.0404 22.5556 28.9999 22.5556C28.9594 22.5556 28.9206 22.5566 28.8818 22.5575C28.0515 22.5761 27.5829 22.7877 27.2039 22.9597C26.8869 23.1036 26.6316 23.2192 26.1179 23.2343C26.0799 23.2354 26.0407 23.2362 25.9998 23.2362C25.9588 23.2362 25.9196 23.2354 25.8817 23.2343C25.368 23.2191 25.1128 23.1036 24.7958 22.9597C24.4167 22.7878 23.9482 22.5761 23.118 22.5575C23.0791 22.5566 23.0404 22.5556 22.9999 22.5556C22.9593 22.5556 22.9206 22.5566 22.8817 22.5575C22.0515 22.5761 21.5829 22.7878 21.2039 22.9597C20.887 23.1036 20.6317 23.2192 20.1181 23.2343C20.0801 23.2354 20.0409 23.2362 20 23.2362C19.959 23.2362 19.9199 23.2354 19.8818 23.2343C19.3683 23.2191 19.113 23.1036 18.7961 22.9597C18.4171 22.7878 17.9485 22.5761 17.1184 22.5575C17.0899 22.5567 17.0615 22.5562 17.0331 22.5561C17.0219 22.5561 17.0112 22.5555 17.0001 22.5555C16.9596 22.5555 16.9209 22.5565 16.882 22.5574C16.0518 22.576 15.5832 22.7877 15.2042 22.9597C14.8872 23.1035 14.632 23.2191 14.1184 23.2343C14.0804 23.2354 14.0412 23.2361 14.0003 23.2361C13.9593 23.2361 13.9202 23.2354 13.8822 23.2343C13.3682 23.2192 13.1131 23.1036 12.796 22.9597C12.4169 22.7877 11.9484 22.576 11.1182 22.5574C11.0793 22.5566 11.0405 22.5556 11 22.5556V23.9167C11.5947 23.9167 11.8636 24.0387 12.204 24.1931C12.6008 24.3731 13.0947 24.5972 14 24.5972C14.9052 24.5972 15.3991 24.3731 15.796 24.1931C16.1364 24.0387 16.4052 23.9167 16.9999 23.9167C17.5946 23.9167 17.8634 24.0387 18.2038 24.1931C18.6006 24.3731 19.0944 24.5972 19.9997 24.5972C20.905 24.5972 21.3989 24.3731 21.7957 24.1931C22.1361 24.0387 22.405 23.9167 22.9996 23.9167C23.5943 23.9167 23.8632 24.0387 24.2036 24.1931C24.6005 24.3731 25.0943 24.5972 25.9997 24.5972C26.905 24.5972 27.3989 24.3731 27.7958 24.1931C28.1362 24.0387 28.4051 23.9167 28.9998 23.9167C29.5946 23.9167 29.8635 24.0387 30.2039 24.1931C30.6008 24.3732 31.0947 24.5972 32 24.5972V23.2362C31.959 23.2362 31.9198 23.2354 31.8818 23.2343Z" fill="#E97400"/>
</svg>
