<svg width="14" height="20" viewBox="0 0 14 20" fill="none" xmlns="http://www.w3.org/2000/svg">
<path fill-rule="evenodd" clip-rule="evenodd" d="M3.50001 0.0362028C3.15951 0.169181 2.92323 0.509198 2.88342 0.923431L2.86048 1.16235L2.31725 1.16294C1.52752 1.16376 1.1698 1.27648 0.729302 1.66328C0.338106 2.00678 0.0917155 2.50955 0.0267018 3.09698C0.00498268 3.29314 -0.0043666 6.22301 0.0019262 10.8648L0.0119946 18.3177L0.093082 18.5493C0.325772 19.2141 0.765333 19.6884 1.35362 19.9095L1.59419 20H7.006H12.4178L12.6515 19.9084C13.2742 19.6642 13.7178 19.1626 13.9197 18.4742L14 18.2003V10.5518V2.90332L13.9169 2.64159C13.7129 1.99931 13.2668 1.51141 12.6666 1.27417C12.4869 1.20312 12.3516 1.1872 11.7975 1.1719L11.1413 1.15379L11.1405 0.952655C11.1391 0.598398 10.9521 0.266597 10.6558 0.0926571L10.512 0.00822999L7.05994 0.00114875C4.66903 -0.00378072 3.57473 0.00701718 3.50001 0.0362028ZM10.0625 1.7492V2.33604H7.006H3.94949V1.7492V1.16235H7.006H10.0625V1.7492ZM2.88306 2.57125C2.91977 2.95332 3.10773 3.25816 3.40623 3.4199C3.52791 3.48578 3.74805 3.49079 6.94623 3.50053C9.22833 3.50745 10.4025 3.4974 10.4957 3.47013C10.8515 3.36587 11.1413 2.94874 11.1413 2.54085V2.32931L11.7256 2.34246C12.2913 2.35517 12.3154 2.35912 12.4822 2.46581C12.6781 2.59104 12.8504 2.82683 12.9038 3.04252C12.9278 3.13947 12.9369 5.71422 12.9307 10.6361C12.9217 17.7116 12.918 18.0908 12.8565 18.2395C12.7666 18.4566 12.594 18.6431 12.3819 18.7525L12.2021 18.8451L7.006 18.8438C2.75853 18.8427 1.78531 18.8329 1.67502 18.79C1.47613 18.7128 1.30306 18.5541 1.19044 18.3457L1.09076 18.1612V10.6496C1.09076 4.38756 1.09896 3.11278 1.14006 2.98622C1.20903 2.77378 1.41799 2.5358 1.63014 2.42809C1.79257 2.34562 1.86068 2.33678 2.33523 2.33643L2.86048 2.33604L2.88306 2.57125ZM5.01028 5.53789C4.95095 5.57991 4.6275 5.91539 4.2915 6.28342C3.9555 6.65141 3.66355 6.95253 3.64273 6.95253C3.62191 6.95253 3.53273 6.87131 3.44456 6.77202C3.18202 6.47641 3.00453 6.42457 2.73703 6.56541C2.48021 6.7007 2.37352 7.02331 2.48891 7.31567C2.51624 7.38492 2.73063 7.64681 2.96537 7.89766C3.31406 8.27035 3.41744 8.35892 3.53043 8.38196C3.81134 8.43928 3.86812 8.39358 4.85472 7.31567C5.65236 6.44421 5.78135 6.28682 5.80296 6.15861C5.83654 5.95924 5.73996 5.68887 5.59512 5.57666C5.43927 5.45593 5.15289 5.43691 5.01028 5.53789ZM6.9248 6.72605C6.78248 6.81635 6.64641 7.06086 6.64641 7.22639C6.64641 7.39752 6.78276 7.63777 6.93153 7.72873L7.07277 7.81511L9.14037 7.80439C11.1647 7.79391 11.2101 7.79199 11.3073 7.713C11.4855 7.56817 11.5507 7.43793 11.5507 7.22639C11.5507 7.01486 11.4855 6.88462 11.3073 6.73978C11.21 6.66076 11.1657 6.65892 9.13394 6.64972L7.05994 6.64029L6.9248 6.72605ZM5.13998 9.69231C5.04638 9.71558 4.86047 9.89383 4.34238 10.4569L3.66678 11.1912L3.44819 10.971C3.216 10.7372 3.07742 10.6795 2.85638 10.7246C2.5156 10.7941 2.34227 11.2095 2.50747 11.5608C2.54501 11.6406 2.75289 11.8938 2.96947 12.1234C3.40831 12.5887 3.53129 12.6575 3.78883 12.5818C3.90641 12.5473 4.08804 12.3705 4.82096 11.5769C5.31014 11.0472 5.73676 10.5534 5.76894 10.4795C5.95086 10.0625 5.56969 9.58542 5.13998 9.69231ZM6.9248 10.6383C6.78248 10.7286 6.64641 10.9731 6.64641 11.1387C6.64641 11.3098 6.78276 11.5501 6.93153 11.641L7.07277 11.7274L9.14037 11.7167C11.1647 11.7062 11.2101 11.7043 11.3073 11.6253C11.4855 11.4805 11.5507 11.3502 11.5507 11.1387C11.5507 10.9271 11.4855 10.7969 11.3073 10.6521C11.21 10.573 11.1657 10.5712 9.13394 10.562L7.05994 10.5526L6.9248 10.6383ZM5.13998 13.6046C5.04638 13.6279 4.86047 13.8061 4.34238 14.3692L3.66678 15.1035L3.44819 14.8833C3.216 14.6494 3.07742 14.5917 2.85638 14.6368C2.5156 14.7064 2.34227 15.1218 2.50747 15.4731C2.54501 15.5529 2.75289 15.8061 2.96947 16.0357C3.40831 16.501 3.53129 16.5697 3.78883 16.4941C3.90641 16.4596 4.08804 16.2827 4.82096 15.4891C5.31014 14.9595 5.73676 14.4656 5.76894 14.3918C5.95086 13.9748 5.56969 13.4977 5.13998 13.6046ZM6.9248 14.5511C6.78241 14.6409 6.64641 14.8851 6.64641 15.051C6.64641 15.2212 6.78276 15.4623 6.92998 15.5524C7.06911 15.6374 7.07907 15.6378 9.10905 15.6378C11.3628 15.6378 11.3073 15.6437 11.4746 15.3885C11.5865 15.2177 11.5865 14.8842 11.4746 14.7134C11.3072 14.4581 11.3636 14.464 9.10416 14.465C7.07022 14.4659 7.05925 14.4663 6.9248 14.5511Z" fill="black"/>
</svg>
