<svg width="35" height="36" viewBox="0 0 35 36" fill="none" xmlns="http://www.w3.org/2000/svg">
<path d="M0.745812 17.3812C0.744994 20.3373 1.51738 23.2236 2.98605 25.7677L0.605354 34.46L9.50084 32.1275C11.9612 33.467 14.7179 34.1688 17.5192 34.169H17.5266C26.7743 34.169 34.3022 26.6438 34.3061 17.3945C34.3079 12.9125 32.564 8.69792 29.3957 5.52712C26.2279 2.35659 22.0148 0.609589 17.5259 0.607544C8.27709 0.607544 0.749767 8.13227 0.745949 17.3812" fill="url(#paint0_linear_1_563)"/>
<path d="M0.145913 17.3753C0.144958 20.4377 0.945023 23.4273 2.46606 26.0625L0 35.0664L9.21445 32.6503C11.7533 34.0346 14.6119 34.7644 17.5206 34.7655H17.5281C27.1076 34.7655 34.9059 26.9697 34.9099 17.3892C34.9116 12.7462 33.105 8.38016 29.8235 5.09576C26.5415 1.81177 22.1778 0.00190914 17.5281 0C7.94692 0 0.149731 7.79474 0.145913 17.3753ZM5.63346 25.6086L5.2894 25.0625C3.84309 22.7628 3.07971 20.1053 3.0808 17.3764C3.0838 9.41328 9.56451 2.93462 17.5335 2.93462C21.3927 2.93625 25.0195 4.44065 27.7474 7.17018C30.4752 9.89997 31.9761 13.5287 31.9752 17.3882C31.9716 25.3513 25.4908 31.8308 17.5281 31.8308H17.5223C14.9296 31.8294 12.3868 31.1331 10.1692 29.8173L9.64142 29.5044L4.17337 30.938L5.63346 25.6086Z" fill="url(#paint1_linear_1_563)"/>
<path d="M13.1851 10.1116C12.8597 9.38845 12.5173 9.37386 12.2079 9.36118C11.9545 9.35027 11.6649 9.35109 11.3755 9.35109C11.0859 9.35109 10.6153 9.46005 10.2175 9.89437C9.81929 10.3291 8.69727 11.3797 8.69727 13.5164C8.69727 15.6533 10.2536 17.7183 10.4706 18.0083C10.6878 18.2979 13.4752 22.8231 17.8896 24.5639C21.5584 26.0106 22.3051 25.7229 23.1013 25.6503C23.8977 25.5781 25.671 24.6001 26.0328 23.5859C26.3948 22.5719 26.3948 21.7027 26.2863 21.521C26.1777 21.3401 25.8881 21.2314 25.4538 21.0143C25.0193 20.797 22.8841 19.7463 22.486 19.6014C22.0878 19.4566 21.7983 19.3843 21.5087 19.8192C21.219 20.2534 20.3873 21.2314 20.1338 21.521C19.8806 21.8113 19.6271 21.8475 19.1929 21.6303C18.7583 21.4123 17.3596 20.9543 15.7001 19.4748C14.409 18.3236 13.5373 16.902 13.284 16.4671C13.0306 16.0329 13.2568 15.7976 13.4746 15.5812C13.6698 15.3866 13.9091 15.074 14.1264 14.8205C14.343 14.5669 14.4153 14.3859 14.5601 14.0962C14.705 13.8063 14.6325 13.5527 14.5241 13.3355C14.4153 13.1182 13.5713 10.9703 13.1851 10.1116Z" fill="white"/>
<defs>
<linearGradient id="paint0_linear_1_563" x1="1685.64" y1="3385.85" x2="1685.64" y2="0.607544" gradientUnits="userSpaceOnUse">
<stop stop-color="#1FAF38"/>
<stop offset="1" stop-color="#60D669"/>
</linearGradient>
<linearGradient id="paint1_linear_1_563" x1="1745.5" y1="3506.64" x2="1745.5" y2="0" gradientUnits="userSpaceOnUse">
<stop stop-color="#F9F9F9"/>
<stop offset="1" stop-color="white"/>
</linearGradient>
</defs>
</svg>
