<svg width="42" height="42" viewBox="0 0 42 42" fill="none" xmlns="http://www.w3.org/2000/svg">
<circle cx="21" cy="21" r="20.5" fill="white" stroke="#E6E6E6"/>
<path d="M16.5 26.925V27.925M16.5 24.925H17M19 24.925H19.5M14.5 17.425L16 22.925M26.5 17.425L25 22.925M17.05 16.425C18.95 14.525 22.05 14.525 23.95 16.425M18.855 17.958C19.714 17.099 21.185 17.099 22.045 17.958M24.5 26.925V27.925M14 25.925V23.925C14 23.6598 14.1054 23.4054 14.2929 23.2179C14.4804 23.0304 14.7348 22.925 15 22.925H26C26.2652 22.925 26.5196 23.0304 26.7071 23.2179C26.8946 23.4054 27 23.6598 27 23.925V25.925C27 26.1902 26.8946 26.4446 26.7071 26.6321C26.5196 26.8196 26.2652 26.925 26 26.925H15C14.7348 26.925 14.4804 26.8196 14.2929 26.6321C14.1054 26.4446 14 26.1902 14 25.925ZM20.45 20.297C20.3837 20.297 20.3201 20.2707 20.2732 20.2238C20.2263 20.1769 20.2 20.1133 20.2 20.047C20.2 19.9807 20.2263 19.9171 20.2732 19.8702C20.3201 19.8233 20.3837 19.797 20.45 19.797C20.5163 19.797 20.5799 19.8233 20.6268 19.8702C20.6737 19.9171 20.7 19.9807 20.7 20.047C20.7 20.1133 20.6737 20.1769 20.6268 20.2238C20.5799 20.2707 20.5163 20.297 20.45 20.297Z" stroke="#E97400" stroke-linecap="round" stroke-linejoin="round"/>
</svg>
